<svg width="42" height="42" viewBox="0 0 42 42" fill="none" xmlns="http://www.w3.org/2000/svg">
<path fill-rule="evenodd" clip-rule="evenodd" d="M9.84263 7.74231C6.93939 9.06938 4.8125 12.2259 4.8125 15.9899C4.8125 19.8353 6.38613 22.7994 8.642 25.3396C10.5013 27.4332 12.752 29.1683 14.947 30.8605C15.4683 31.2625 15.9865 31.662 16.4956 32.0633C17.4161 32.789 18.2373 33.4259 19.0288 33.8884C19.8207 34.3512 20.4582 34.5625 21 34.5625C21.5418 34.5625 22.1793 34.3512 22.9712 33.8884C23.7627 33.4259 24.5839 32.789 25.5044 32.0633C26.0135 31.662 26.5317 31.2625 27.053 30.8605C29.248 29.1683 31.4987 27.4332 33.358 25.3396C35.6139 22.7994 37.1875 19.8353 37.1875 15.9899C37.1875 12.2259 35.0606 9.06938 32.1574 7.74231C29.3369 6.45305 25.5471 6.79448 21.9456 10.5363C21.6982 10.7933 21.3568 10.9386 21 10.9386C20.6432 10.9386 20.3018 10.7933 20.0544 10.5363C16.4529 6.79448 12.6631 6.45305 9.84263 7.74231ZM21 7.80289C16.9539 4.18289 12.4232 3.67649 8.75134 5.3549C4.87325 7.12758 2.1875 11.2438 2.1875 15.9899C2.1875 20.6546 4.13087 24.2131 6.67926 27.0826C8.72003 29.3806 11.2179 31.3039 13.4239 33.0025C13.924 33.3875 14.4091 33.761 14.8705 34.1247C15.7669 34.8314 16.7292 35.5849 17.7044 36.1548C18.6793 36.7245 19.7918 37.1875 21 37.1875C22.2082 37.1875 23.3207 36.7245 24.2956 36.1548C25.2708 35.5849 26.2331 34.8314 27.1295 34.1247C27.5909 33.761 28.076 33.3875 28.5761 33.0025C30.7821 31.3039 33.28 29.3806 35.3207 27.0826C37.8691 24.2131 39.8125 20.6546 39.8125 15.9899C39.8125 11.2438 37.1268 7.12758 33.2487 5.3549C29.5768 3.67649 25.0461 4.18289 21 7.80289Z" fill="#D4A63A"/>
</svg>
