<svg width="155" height="65" viewBox="0 0 155 65" fill="none" xmlns="http://www.w3.org/2000/svg">
<path d="M23.0958 14.2921C22.5494 13.2854 21.7584 12.5233 20.723 12.0056C19.7164 11.4591 18.5228 11.1859 17.1423 11.1859C14.7551 11.1859 12.8425 11.9768 11.4045 13.5587C9.96642 15.1118 9.24739 17.1969 9.24739 19.8142C9.24739 22.604 9.99518 24.7898 11.4908 26.3717C13.0151 27.9248 15.1003 28.7013 17.7463 28.7013C19.5582 28.7013 21.0826 28.2412 22.3193 27.3208C23.5848 26.4005 24.5051 25.0774 25.0803 23.3518H15.7186V17.916H31.7673V24.7755C31.2208 26.6162 30.2861 28.3274 28.9631 29.9093C27.6688 31.4912 26.0151 32.771 24.0018 33.7489C21.9885 34.7268 19.7164 35.2157 17.1854 35.2157C14.1943 35.2157 11.5195 34.5686 9.16111 33.2743C6.83147 31.9513 5.00514 30.125 3.68213 27.7954C2.38789 25.4657 1.74076 22.8053 1.74076 19.8142C1.74076 16.823 2.38789 14.1626 3.68213 11.833C5.00514 9.47459 6.83147 7.64826 9.16111 6.35402C11.4908 5.03101 14.1511 4.36951 17.1423 4.36951C20.7662 4.36951 23.8149 5.24672 26.2883 7.00114C28.7905 8.75556 30.4443 11.1859 31.2496 14.2921H23.0958ZM58.546 22.5752C58.546 23.2655 58.5029 23.9845 58.4166 24.7323H41.7208C41.8359 26.2279 42.3104 27.3783 43.1445 28.1836C44.0073 28.9602 45.0571 29.3485 46.2938 29.3485C48.1345 29.3485 49.4144 28.5719 50.1334 27.0188H57.9852C57.5825 28.6007 56.8491 30.0243 55.785 31.2898C54.7496 32.5553 53.441 33.5476 51.8591 34.2666C50.2772 34.9856 48.5084 35.3451 46.5527 35.3451C44.1943 35.3451 42.0947 34.8418 40.254 33.8352C38.4133 32.8285 36.9753 31.3905 35.9399 29.521C34.9045 27.6516 34.3868 25.4657 34.3868 22.9635C34.3868 20.4613 34.8901 18.2755 35.8967 16.406C36.9321 14.5365 38.3702 13.0985 40.2109 12.0918C42.0516 11.0852 44.1655 10.5819 46.5527 10.5819C48.8823 10.5819 50.9531 11.0708 52.7651 12.0487C54.577 13.0266 55.9863 14.4215 56.9929 16.2334C58.0283 18.0454 58.546 20.1593 58.546 22.5752ZM50.9963 20.6339C50.9963 19.3684 50.5649 18.3617 49.702 17.614C48.8392 16.8662 47.7607 16.4923 46.4664 16.4923C45.2297 16.4923 44.1799 16.8518 43.3171 17.5708C42.483 18.2898 41.9653 19.3109 41.764 20.6339H50.9963ZM77.106 10.6682C79.9246 10.6682 82.1679 11.5885 83.8361 13.4292C85.533 15.2412 86.3814 17.7434 86.3814 20.9359V35H79.0474V21.9281C79.0474 20.3175 78.6303 19.0664 77.7963 18.1748C76.9622 17.2832 75.8405 16.8374 74.4312 16.8374C73.0219 16.8374 71.9003 17.2832 71.0662 18.1748C70.2321 19.0664 69.8151 20.3175 69.8151 21.9281V35H62.4379V10.927H69.8151V14.1195C70.5629 13.0553 71.5695 12.2213 72.835 11.6173C74.1005 10.9845 75.5241 10.6682 77.106 10.6682ZM95.218 8.42481C93.9238 8.42481 92.8596 8.05092 92.0256 7.30313C91.2202 6.52658 90.8176 5.57747 90.8176 4.45579C90.8176 3.30535 91.2202 2.35624 92.0256 1.60845C92.8596 0.831901 93.9238 0.443627 95.218 0.443627C96.4835 0.443627 97.5189 0.831901 98.3242 1.60845C99.1583 2.35624 99.5753 3.30535 99.5753 4.45579C99.5753 5.57747 99.1583 6.52658 98.3242 7.30313C97.5189 8.05092 96.4835 8.42481 95.218 8.42481ZM98.8851 10.927V35H91.5079V10.927H98.8851ZM128.002 10.927V35H120.625V31.7212C119.877 32.7854 118.856 33.6482 117.562 34.3097C116.296 34.9425 114.887 35.2588 113.334 35.2588C111.493 35.2588 109.868 34.8562 108.459 34.0509C107.05 33.2168 105.957 32.0232 105.18 30.4701C104.404 28.917 104.016 27.0907 104.016 24.9912V10.927H111.35V23.9989C111.35 25.6095 111.767 26.8606 112.601 27.7522C113.435 28.6438 114.556 29.0896 115.966 29.0896C117.404 29.0896 118.54 28.6438 119.374 27.7522C120.208 26.8606 120.625 25.6095 120.625 23.9989V10.927H128.002ZM143.094 35.3451C140.995 35.3451 139.125 34.9856 137.486 34.2666C135.847 33.5476 134.552 32.5697 133.603 31.333C132.654 30.0675 132.122 28.6582 132.007 27.1051H139.298C139.384 27.9392 139.772 28.6151 140.463 29.1328C141.153 29.6504 142.001 29.9093 143.008 29.9093C143.928 29.9093 144.633 29.7367 145.122 29.3916C145.64 29.0177 145.899 28.5431 145.899 27.9679C145.899 27.2777 145.539 26.7743 144.82 26.458C144.101 26.1128 142.936 25.7389 141.326 25.3363C139.6 24.9336 138.162 24.5166 137.011 24.0852C135.861 23.625 134.869 22.9204 134.035 21.9713C133.201 20.9934 132.784 19.6848 132.784 18.0454C132.784 16.6648 133.157 15.4137 133.905 14.2921C134.682 13.1416 135.803 12.2356 137.27 11.5741C138.766 10.9126 140.535 10.5819 142.577 10.5819C145.597 10.5819 147.969 11.3297 149.695 12.8253C151.449 14.3208 152.456 16.3053 152.715 18.7788H145.899C145.784 17.9447 145.41 17.2832 144.777 16.7943C144.173 16.3053 143.368 16.0609 142.361 16.0609C141.498 16.0609 140.837 16.2334 140.376 16.5786C139.916 16.8949 139.686 17.3407 139.686 17.916C139.686 18.6062 140.046 19.1239 140.765 19.469C141.512 19.8142 142.663 20.1593 144.216 20.5044C145.999 20.9646 147.452 21.4248 148.573 21.885C149.695 22.3164 150.673 23.0354 151.507 24.042C152.37 25.0199 152.816 26.3429 152.844 28.0111C152.844 29.4204 152.442 30.6858 151.636 31.8075C150.86 32.9004 149.724 33.7633 148.228 34.396C146.761 35.0288 145.05 35.3451 143.094 35.3451Z" fill="#D4A63A"/>
<line x1="8.06482" y1="51.1099" x2="36.5493" y2="51.1099" stroke="#D4A63A" stroke-width="1.78028" stroke-linecap="round"/>
<path d="M48.8332 62.2564C47.5989 62.2564 46.488 62.038 45.5005 61.6012C44.5321 61.1455 43.763 60.5378 43.1933 59.7782C42.6236 58.9997 42.3198 58.1356 42.2818 57.1862H45.643C45.6999 57.8508 46.0133 58.411 46.583 58.8667C47.1716 59.3035 47.9027 59.5219 48.7763 59.5219C49.6878 59.5219 50.3904 59.351 50.8841 59.0092C51.3968 58.6484 51.6532 58.1926 51.6532 57.6419C51.6532 57.0532 51.3684 56.6165 50.7987 56.3316C50.248 56.0468 49.3649 55.7334 48.1496 55.3916C46.9722 55.0688 46.0133 54.7555 45.2727 54.4516C44.5321 54.1478 43.8864 53.6826 43.3357 53.0559C42.804 52.4292 42.5382 51.6032 42.5382 50.5778C42.5382 49.7422 42.785 48.9826 43.2788 48.299C43.7725 47.5964 44.4751 47.0457 45.3866 46.6469C46.3171 46.2481 47.3805 46.0487 48.5769 46.0487C50.3619 46.0487 51.7956 46.5045 52.878 47.416C53.9794 48.3085 54.5681 49.5333 54.6441 51.0905H51.3968C51.3399 50.3879 51.055 49.8277 50.5423 49.4099C50.0296 48.9921 49.3365 48.7832 48.4629 48.7832C47.6084 48.7832 46.9533 48.9446 46.4975 49.2675C46.0418 49.5903 45.8139 50.0176 45.8139 50.5493C45.8139 50.967 45.9658 51.3183 46.2696 51.6032C46.5735 51.888 46.9438 52.1159 47.3805 52.2868C47.8173 52.4387 48.4629 52.6381 49.3175 52.885C50.4568 53.1888 51.3873 53.5022 52.1089 53.825C52.8495 54.1288 53.4857 54.5846 54.0174 55.1922C54.5491 55.7999 54.8245 56.607 54.8435 57.6134C54.8435 58.5059 54.5966 59.3035 54.1029 60.0061C53.6091 60.7087 52.9065 61.2594 51.995 61.6582C51.1025 62.057 50.0486 62.2564 48.8332 62.2564ZM62.1406 48.9541V57.6419C62.1406 58.2306 62.2735 58.6579 62.5394 58.9237C62.8242 59.1706 63.299 59.294 63.9636 59.294H65.9575V62H63.3939C61.9317 62 60.8113 61.6582 60.0328 60.9746C59.2542 60.291 58.8649 59.1801 58.8649 57.6419V48.9541H57.0134V46.3051H58.8649V42.4027H62.1406V46.3051H65.9575V48.9541H62.1406ZM75.7582 62.2564C74.277 62.2564 72.9382 61.9241 71.7419 61.2594C70.5455 60.5758 69.6055 59.6263 68.9219 58.411C68.2383 57.1767 67.8965 55.7524 67.8965 54.1383C67.8965 52.5432 68.2478 51.1285 68.9504 49.8941C69.653 48.6598 70.612 47.7103 71.8273 47.0457C73.0427 46.381 74.4004 46.0487 75.9006 46.0487C77.4008 46.0487 78.7586 46.381 79.9739 47.0457C81.1892 47.7103 82.1482 48.6598 82.8508 49.8941C83.5534 51.1285 83.9047 52.5432 83.9047 54.1383C83.9047 55.7334 83.5439 57.1482 82.8223 58.3825C82.1007 59.6168 81.1133 60.5758 79.86 61.2594C78.6256 61.9241 77.2584 62.2564 75.7582 62.2564ZM75.7582 59.4364C76.5937 59.4364 77.3723 59.237 78.0939 58.8383C78.8345 58.4395 79.4327 57.8413 79.8884 57.0437C80.3442 56.2462 80.5721 55.2777 80.5721 54.1383C80.5721 52.9989 80.3537 52.04 79.9169 51.2614C79.4802 50.4638 78.901 49.8656 78.1794 49.4669C77.4578 49.0681 76.6792 48.8687 75.8436 48.8687C75.0081 48.8687 74.2295 49.0681 73.5079 49.4669C72.8053 49.8656 72.2451 50.4638 71.8273 51.2614C71.4096 52.04 71.2007 52.9989 71.2007 54.1383C71.2007 55.8284 71.6279 57.1387 72.4825 58.0692C73.356 58.9807 74.4479 59.4364 75.7582 59.4364ZM90.362 48.5838C90.8368 47.7863 91.4634 47.1691 92.242 46.7323C93.0396 46.2766 93.9796 46.0487 95.062 46.0487V49.4099H94.2359C92.9636 49.4099 91.9952 49.7327 91.3305 50.3784C90.6849 51.024 90.362 52.1444 90.362 53.7395V62H87.1148V46.3051H90.362V48.5838ZM112.432 53.768C112.432 54.3567 112.394 54.8884 112.318 55.3631H100.326C100.421 56.6165 100.886 57.6229 101.721 58.3825C102.557 59.1421 103.582 59.5219 104.798 59.5219C106.545 59.5219 107.779 58.7908 108.501 57.3286H112.004C111.53 58.7718 110.665 59.9586 109.412 60.8891C108.178 61.8006 106.64 62.2564 104.798 62.2564C103.297 62.2564 101.949 61.9241 100.753 61.2594C99.5755 60.5758 98.645 59.6263 97.9614 58.411C97.2968 57.1767 96.9644 55.7524 96.9644 54.1383C96.9644 52.5242 97.2873 51.1095 97.9329 49.8941C98.5975 48.6598 99.5185 47.7103 100.696 47.0457C101.892 46.381 103.26 46.0487 104.798 46.0487C106.279 46.0487 107.599 46.3715 108.757 47.0172C109.915 47.6628 110.817 48.5743 111.463 49.7517C112.109 50.9101 112.432 52.2488 112.432 53.768ZM109.042 52.7426C109.023 51.5462 108.596 50.5872 107.76 49.8656C106.925 49.144 105.89 48.7832 104.655 48.7832C103.535 48.7832 102.576 49.144 101.778 49.8656C100.981 50.5683 100.506 51.5272 100.354 52.7426H109.042Z" fill="#222222"/>
<line x1="118.451" y1="51.1099" x2="146.935" y2="51.1099" stroke="#D4A63A" stroke-width="1.78028" stroke-linecap="round"/>
</svg>
