<svg width="70" height="20" viewBox="0 0 70 20" fill="none" xmlns="http://www.w3.org/2000/svg">
<g clip-path="url(#clip0_25_227)">
<path d="M6.80414 5.49086C7.98345 5.49086 8.93947 4.53484 8.93947 3.35554C8.93947 2.17623 7.98345 1.22021 6.80414 1.22021C5.62484 1.22021 4.66882 2.17623 4.66882 3.35554C4.66882 4.53484 5.62484 5.49086 6.80414 5.49086Z" fill="#965EEB"/>
<path d="M14.2858 9.29266C16.8519 9.29266 18.9321 7.21243 18.9321 4.64633C18.9321 2.08023 16.8519 0 14.2858 0C11.7197 0 9.63947 2.08023 9.63947 4.64633C9.63947 7.21243 11.7197 9.29266 14.2858 9.29266Z" fill="#00AAFF"/>
<path d="M5.7156 17.6604C8.87223 17.6604 11.4312 15.1015 11.4312 11.9448C11.4312 8.78821 8.87223 6.22925 5.7156 6.22925C2.55896 6.22925 0 8.78821 0 11.9448C0 15.1015 2.55896 17.6604 5.7156 17.6604Z" fill="#04E061"/>
<path d="M15.6216 16.9413C17.528 16.9413 19.0734 15.3958 19.0734 13.4894C19.0734 11.583 17.528 10.0376 15.6216 10.0376C13.7152 10.0376 12.1697 11.583 12.1697 13.4894C12.1697 15.3958 13.7152 16.9413 15.6216 16.9413Z" fill="#FF0B66"/>
</g>
<g clip-path="url(#clip1_25_227)">
<path d="M26.5615 0.398202L20.5505 16.0936H23.7808L25.0138 12.8184H31.3973L32.6367 16.0936H35.8413L29.8624 0.398202H26.5551H26.5615ZM26.1248 9.9349L28.2248 4.41196L30.3119 9.9349H26.1248ZM39.7009 12.0477L37.0936 5.06701H34.011L38.211 16.0936H41.2615L45.3973 5.07343H42.3147L39.7074 12.0542L39.7009 12.0477ZM49.2697 5.06701H46.3349V16.0936H49.2633V5.07343L49.2697 5.06701ZM47.7927 4.27068C48.0829 4.2866 48.3734 4.24318 48.6463 4.14307C48.9192 4.04295 49.1689 3.88824 49.38 3.68839C49.5911 3.48855 49.7593 3.24776 49.8742 2.98073C49.9891 2.71371 50.0484 2.42606 50.0484 2.13536C50.0484 1.84466 49.9891 1.55701 49.8742 1.28998C49.7593 1.02296 49.5911 0.78217 49.38 0.582322C49.1689 0.382475 48.9192 0.227767 48.6463 0.127651C48.3734 0.0275352 48.0829 -0.015887 47.7927 3.73174e-05C47.2466 0.0299957 46.7328 0.268026 46.3568 0.665189C45.9808 1.06235 45.7713 1.58846 45.7713 2.13536C45.7713 2.68225 45.9808 3.20836 46.3568 3.60553C46.7328 4.00269 47.2466 4.24072 47.7927 4.27068ZM55.0752 2.12573H52.1468V5.04774H50.4321V7.70646H52.1468V12.3945C52.1468 15.0468 53.611 16.1964 55.6725 16.1964C56.367 16.2042 57.0557 16.0687 57.6954 15.7982V13.0624C57.3486 13.1909 56.9826 13.2551 56.6037 13.2615C55.711 13.2615 55.0624 12.9147 55.0624 11.7202V7.70646H57.6954V5.07343H55.0624V2.12573H55.0752ZM63.8734 4.86793C62.7425 4.86676 61.6366 5.20114 60.6957 5.82875C59.7549 6.45635 59.0214 7.34897 58.5881 8.39361C58.0101 9.79189 58.0101 11.3623 58.5881 12.7606C59.1638 14.1623 60.2726 15.278 61.6707 15.8624C62.3648 16.1506 63.109 16.299 63.8606 16.2991C64.9837 16.2883 66.0788 15.9467 67.009 15.3172C67.9392 14.6876 68.6632 13.798 69.0908 12.7593C69.5183 11.7206 69.6303 10.579 69.4128 9.47708C69.1953 8.37513 68.658 7.36169 67.8679 6.56334C66.8095 5.49352 65.3718 4.8843 63.867 4.86793H63.8734ZM63.8734 13.3707C63.4618 13.3718 63.0551 13.2816 62.6827 13.1066C62.3102 12.9315 61.9812 12.6759 61.7195 12.3583C61.4578 12.0406 61.2698 11.6689 61.1692 11.2698C61.0686 10.8707 61.0578 10.4543 61.1376 10.0505C61.2437 9.51017 61.5079 9.01351 61.8965 8.62346C62.2852 8.23341 62.781 7.96755 63.3209 7.85956C63.8609 7.75157 64.4207 7.80632 64.9295 8.01686C65.4383 8.22741 65.8732 8.58428 66.1789 9.04224C66.4851 9.50031 66.6482 10.039 66.6477 10.5899C66.6477 10.9548 66.5758 11.3161 66.4359 11.6531C66.2961 11.9901 66.0912 12.2963 65.8329 12.554C65.5746 12.8117 65.268 13.0159 64.9306 13.1549C64.5933 13.294 64.2319 13.3651 63.867 13.3643V13.3707H63.8734Z" fill="black"/>
</g>
<defs>
<clipPath id="clip0_25_227">
<rect width="19.2661" height="19.2661" fill="white"/>
</clipPath>
<clipPath id="clip1_25_227">
<rect width="50.7339" height="19.2661" fill="white" transform="translate(19.2661)"/>
</clipPath>
</defs>
</svg>
