<svg width="24" height="24" viewBox="0 0 24 24" fill="none" xmlns="http://www.w3.org/2000/svg">
<path d="M18.4834 16.7674C17.8471 16.9195 17.1829 17 16.5 17C11.8056 17 8 13.1944 8 8.50001C8 8.01653 8.04036 7.54249 8.11791 7.08105C8.08172 7.11586 8.04432 7.14792 8.00494 7.17781C7.72433 7.39083 7.37485 7.46991 6.67589 7.62806L6.03954 7.77204C3.57986 8.32856 2.35002 8.60682 2.05742 9.54774C1.76482 10.4887 2.60325 11.4691 4.2801 13.4299L4.71392 13.9372C5.19042 14.4944 5.42868 14.773 5.53586 15.1177C5.64305 15.4624 5.60703 15.8341 5.53498 16.5776L5.4694 17.2544C5.21588 19.8706 5.08912 21.1787 5.85515 21.7602C6.62117 22.3417 7.77267 21.8116 10.0757 20.7512L10.6715 20.4768C11.3259 20.1755 11.6531 20.0249 12 20.0249C12.3469 20.0249 12.6741 20.1755 13.3285 20.4768L13.9243 20.7512C16.2273 21.8116 17.3788 22.3417 18.1449 21.7602C18.9109 21.1787 18.7841 19.8706 18.5306 17.2544L18.4834 16.7674Z" fill="#D4A63A"/>
<path opacity="0.5" d="M9.15314 5.40838L8.82545 5.99623C8.4655 6.64194 8.28553 6.96479 8.00492 7.17781C8.0443 7.14791 8.0817 7.11586 8.11789 7.08105C8.04034 7.54249 7.99998 8.01653 7.99998 8.50001C7.99998 13.1944 11.8056 17 16.5 17C17.1829 17 17.847 16.9195 18.4834 16.7674L18.465 16.5776C18.393 15.8341 18.3569 15.4624 18.4641 15.1177C18.5713 14.773 18.8096 14.4944 19.2861 13.9372L19.7199 13.4299C21.3967 11.4691 22.2352 10.4886 21.9426 9.54773C21.65 8.60682 20.4201 8.32856 17.9604 7.77203L17.3241 7.62805C16.6251 7.4699 16.2756 7.39083 15.995 7.17781C15.7144 6.96479 15.5345 6.64194 15.1745 5.99624L14.8468 5.40837C13.5802 3.13612 12.9468 2 12 2C11.0531 2 10.4198 3.13613 9.15314 5.40838Z" fill="#D4A63A"/>
</svg>
