<svg width="13" height="12" viewBox="0 0 13 12" fill="none" xmlns="http://www.w3.org/2000/svg">
<path d="M6.95389 9.75C2.59775 9.75 0.113983 6.65873 0.012085 1.50661H2.20289C2.27295 5.28483 3.87784 6.88331 5.15157 7.21357V1.50661H7.20864V4.76301C8.46326 4.6243 9.78793 3.13811 10.2337 1.5H12.2844C12.1172 2.34796 11.7832 3.15105 11.3033 3.8591C10.8233 4.56714 10.2077 5.16492 9.49498 5.61509C10.2904 6.02569 10.9928 6.60651 11.556 7.31925C12.1191 8.03199 12.5302 8.86045 12.7621 9.75H10.5012C10.0172 8.18455 8.80717 6.96917 7.20864 6.80404V9.75H6.96026H6.95389Z" fill="#222222"/>
</svg>
