<svg width="359" height="238" viewBox="0 0 359 238" fill="none" xmlns="http://www.w3.org/2000/svg">
<g clip-path="url(#clip0_17_784)">
<path d="M233.004 93.01C232.744 93.33 232.464 93.65 232.184 93.96C222.104 86.85 208.754 84.74 196.774 85.78C182.324 87.03 168.864 93.41 160.104 105.07H160.094C144.294 126.1 151.904 155.1 173.514 169.26C177.624 171.95 181.794 173.47 186.304 174.82C179.424 174.35 172.704 172.86 166.344 170.45C153.334 165.55 141.844 156.84 133.644 145.45C121.004 127.89 118.454 105.17 127.074 85.35C134.874 67.42 150.274 54.11 167.844 46.6C161.824 54.4 154.944 60.23 150.394 68.99C157.194 64.11 162.854 58.88 168.944 53.65C174.064 49.26 178.584 44.57 181.914 38.66C189.204 25.74 187.964 10.13 176.234 0C193.844 2.56 207.614 17.02 209.154 34.66C209.714 41.1 208.954 47 207.424 53.13C206.304 57.58 207.104 62.6 210.654 65.65C213.094 67.74 216.394 68.17 219.694 67.36C221.994 66.8 224.584 64.55 225.514 61.62C226.874 57.33 225.444 53.37 223.534 49.11C231.094 51.08 236.304 56.56 238.824 63.72C242.414 73.91 239.874 84.84 233.004 93.01Z" fill="#D5A73B"/>
<path d="M250.995 116.21L250.755 145.63C250.665 156.58 247.225 166.62 241.205 175.63C234.405 185.05 225.445 191.91 214.745 196.63L214.495 203.8H150.875L150.135 195.44C124.055 183.6 107.395 159.81 108.025 130.71C108.315 117.09 111.835 103.55 120.545 92.6001C115.475 108.33 115.685 123.64 122.495 138.17C127.865 149.62 135.905 158.99 146.205 166.38C159.465 176.05 175.095 181.06 191.525 180.14C207.955 179.22 220.375 171.35 222.305 154.48C222.865 149.58 222.565 144.86 222.565 139.55L184.545 139.35L199.415 116.23L250.995 116.21Z" fill="#212121"/>
<path d="M203.235 219.91L162.845 219.96C155.665 219.96 151.855 214.37 151.365 207.74L213.985 207.76C213.565 213.43 209.235 219.91 203.235 219.92V219.91Z" fill="#212121"/>
<path d="M202.495 223.81C197.165 234.23 185.695 241.39 174.555 235.65C169.625 233.22 165.775 229.23 163.115 223.84L202.495 223.81Z" fill="#212121"/>
<path d="M233.005 93.0101C232.745 93.3301 232.465 93.6501 232.185 93.9601C222.105 86.8501 208.755 84.7401 196.775 85.7801C182.325 87.0301 168.865 93.4101 160.105 105.07H160.095C144.295 126.1 151.905 155.1 173.515 169.26C177.625 171.95 181.795 173.47 186.305 174.82C179.425 174.35 172.705 172.86 166.345 170.45C153.465 161.14 145.085 145.99 145.085 128.88C145.085 100.56 168.045 77.6001 196.365 77.6001C210.725 77.6001 223.695 83.5001 233.005 93.0101Z" fill="#212121"/>
</g>
<defs>
<clipPath id="clip0_17_784">
<rect width="142.99" height="237.68" fill="white" transform="translate(108.005)"/>
</clipPath>
</defs>
</svg>
