<svg width="64" height="64" viewBox="0 0 64 64" fill="none" xmlns="http://www.w3.org/2000/svg">
<path opacity="0.5" fill-rule="evenodd" clip-rule="evenodd" d="M38.0768 5.73935C37.0892 5.33337 35.8373 5.33337 33.3333 5.33337C30.8294 5.33337 29.5774 5.33337 28.5898 5.73935C27.2731 6.28065 26.2269 7.31891 25.6815 8.62573C25.4325 9.22228 25.3351 9.91604 25.2969 10.928C25.2409 12.4152 24.4724 13.7918 23.1738 14.5359C21.8751 15.2799 20.2897 15.2521 18.964 14.5567C18.0618 14.0835 17.4077 13.8204 16.7626 13.7361C15.3496 13.5515 13.9205 13.9315 12.7897 14.7926C11.9417 15.4384 11.3157 16.5144 10.0637 18.6665C8.81177 20.8186 8.18578 21.8947 8.04626 22.9465C7.86023 24.3488 8.24315 25.7671 9.11079 26.8893C9.50681 27.4015 10.0634 27.8321 10.9272 28.3708C12.1971 29.1627 13.0142 30.5117 13.0141 32.0001C13.014 33.4884 12.197 34.8372 10.9272 35.629C10.0632 36.1677 9.50659 36.5983 9.11053 37.1106C8.24289 38.2328 7.85996 39.6511 8.046 41.0534C8.18552 42.1052 8.81151 43.1813 10.0635 45.3334C11.3154 47.4855 11.9414 48.5615 12.7895 49.2073C13.9202 50.0684 15.3493 50.4484 16.7624 50.2638C17.4074 50.1795 18.0615 49.9164 18.9635 49.4432C20.2894 48.7478 21.8749 48.72 23.1737 49.4641C24.4724 50.2083 25.2409 51.5849 25.2969 53.0722C25.3351 54.0841 25.4325 54.7778 25.6815 55.3744C26.2269 56.6812 27.2731 57.7194 28.5898 58.2607C29.5774 58.6667 30.8294 58.6667 33.3333 58.6667C35.8373 58.6667 37.0892 58.6667 38.0768 58.2607C39.3936 57.7194 40.4398 56.6812 40.9852 55.3744C41.2342 54.7778 41.3316 54.084 41.3697 53.072C41.4258 51.5848 42.1942 50.2083 43.4927 49.4641C44.7915 48.7199 46.3771 48.7476 47.7029 49.4431C48.605 49.9163 49.259 50.1794 49.904 50.2636C51.3171 50.4483 52.7462 50.0682 53.8769 49.2071C54.725 48.5613 55.351 47.4853 56.6029 45.3332C57.8549 43.1811 58.4809 42.1051 58.6204 41.0533C58.8064 39.6509 58.4235 38.2326 57.5559 37.1104C57.1598 36.5982 56.6032 36.1676 55.7393 35.6288C54.4695 34.837 53.6525 33.4881 53.6526 31.9998C53.6526 30.5116 54.4696 29.1629 55.7393 28.3712C56.6034 27.8324 57.1601 27.4018 57.5561 26.8895C58.4238 25.7673 58.8067 24.349 58.6207 22.9466C58.4812 21.8948 57.8552 20.8188 56.6032 18.6667C55.3512 16.5146 54.7252 15.4386 53.8772 14.7928C52.7464 13.9317 51.3174 13.5516 49.9043 13.7363C49.2593 13.8205 48.6052 14.0837 47.7031 14.5568C46.3773 15.2523 44.7917 15.2801 43.493 14.5359C42.1943 13.7918 41.4258 12.4151 41.3697 10.9279C41.3316 9.91598 41.2341 9.22225 40.9852 8.62573C40.4398 7.31891 39.3936 6.28065 38.0768 5.73935Z" fill="#D4A63A"/>
<path d="M41.3953 32C41.3953 36.4183 37.7863 40 33.3344 40C28.8824 40 25.2734 36.4183 25.2734 32C25.2734 27.5817 28.8824 24 33.3344 24C37.7863 24 41.3953 27.5817 41.3953 32Z" fill="#D4A63A"/>
</svg>
