<svg width="64" height="64" viewBox="0 0 64 64" fill="none" xmlns="http://www.w3.org/2000/svg">
<path d="M26.6654 47.5555C26.6654 53.692 21.8897 58.6666 15.9987 58.6666C10.1077 58.6666 5.33203 53.692 5.33203 47.5555C5.33203 43.716 9.50784 38.5914 12.634 35.293C14.4846 33.3403 17.5128 33.3403 19.3634 35.293C22.4896 38.5914 26.6654 43.716 26.6654 47.5555Z" fill="#D4A63A"/>
<path opacity="0.7" d="M58.6654 47.5552C58.6654 53.6917 53.8897 58.6663 47.9987 58.6663C42.1077 58.6663 37.332 53.6917 37.332 47.5552C37.332 43.7156 41.5078 38.5911 44.634 35.2926C46.4846 33.34 49.5128 33.34 51.3634 35.2926C54.4896 38.5911 58.6654 43.7156 58.6654 47.5552Z" fill="#D4A63A"/>
<path opacity="0.4" d="M42.6654 20.8885C42.6654 27.025 37.8897 31.9997 31.9987 31.9997C26.1077 31.9997 21.332 27.025 21.332 20.8885C21.332 17.049 25.5078 11.9244 28.634 8.62599C30.4846 6.67334 33.5128 6.67334 35.3634 8.62599C38.4896 11.9244 42.6654 17.049 42.6654 20.8885Z" fill="#D4A63A"/>
</svg>
