<svg width="64" height="64" viewBox="0 0 64 64" fill="none" xmlns="http://www.w3.org/2000/svg">
<path opacity="0.5" d="M8.45623 13.7908C5.33203 16.915 5.33203 21.9433 5.33203 32C5.33203 42.0566 5.33203 47.0849 8.45623 50.2091C11.5804 53.3333 16.6087 53.3333 26.6654 53.3333H30.6654C40.722 53.3333 45.7503 53.3333 48.8745 50.2091C51.9987 47.0849 51.9987 42.0566 51.9987 32C51.9987 21.9433 51.9987 16.915 48.8745 13.7908C45.7503 10.6666 40.722 10.6666 30.6654 10.6666H26.6654C16.6087 10.6666 11.5804 10.6666 8.45623 13.7908Z" fill="#D4A63A"/>
<path d="M56.668 37.3333C56.668 38.4379 57.5634 39.3333 58.668 39.3333C59.7725 39.3333 60.668 38.4379 60.668 37.3333V26.6666C60.668 25.5621 59.7725 24.6666 58.668 24.6666C57.5634 24.6666 56.668 25.5621 56.668 26.6666V37.3333Z" fill="#D4A63A"/>
<path d="M17.697 22.2521C18.6626 21.7156 19.8802 22.0635 20.4166 23.0291L18.6683 24.0004C20.4166 23.0291 20.4186 23.0326 20.4186 23.0326L20.4206 23.0363L20.4251 23.0444L20.4353 23.0634L20.461 23.1123C20.4804 23.1499 20.504 23.1972 20.5313 23.2546C20.586 23.3693 20.6552 23.524 20.7336 23.7201C20.8906 24.1125 21.0841 24.6697 21.2723 25.4036C21.649 26.8728 22.0017 29.0401 22.0017 32.0004C22.0017 34.9607 21.649 37.1279 21.2723 38.5971C21.0841 39.331 20.8906 39.8882 20.7336 40.2806C20.6552 40.4768 20.586 40.6314 20.5313 40.7462C20.504 40.8035 20.4804 40.8509 20.461 40.8884L20.4353 40.9373L20.4251 40.9563L20.4206 40.9644L20.4186 40.9682L20.4166 40.9717C19.8802 41.9372 18.6626 42.2851 17.697 41.7487C16.7397 41.2168 16.3895 40.0153 16.9065 39.0537L16.9199 39.0264C16.9382 38.988 16.9732 38.9115 17.0197 38.7951C17.1127 38.5625 17.2525 38.1697 17.3977 37.6036C17.6876 36.4728 18.0017 34.64 18.0017 32.0004C18.0017 29.3607 17.6876 27.5279 17.3977 26.3971C17.2525 25.831 17.1127 25.4382 17.0197 25.2056C16.9732 25.0893 16.9382 25.0127 16.9199 24.9743L16.9065 24.947C16.3895 23.9855 16.7397 22.7839 17.697 22.2521Z" fill="#D4A63A"/>
<path d="M29.75 23.0291C29.2136 22.0635 27.9959 21.7156 27.0304 22.2521C26.073 22.7839 25.7229 23.9855 26.2399 24.947L26.2532 24.9743C26.2715 25.0127 26.3065 25.0893 26.353 25.2056C26.4461 25.4382 26.5859 25.831 26.731 26.3971C27.021 27.5279 27.335 29.3607 27.335 32.0004C27.335 34.64 27.021 36.4728 26.731 37.6036C26.5859 38.1697 26.4461 38.5625 26.353 38.7951C26.3065 38.9115 26.2715 38.988 26.2532 39.0264L26.2399 39.0537C25.7229 40.0153 26.073 41.2168 27.0304 41.7487C27.9959 42.2851 29.2136 41.9372 29.75 40.9717L28.0017 40.0004C29.75 40.9717 29.7519 40.9682 29.7519 40.9682L29.754 40.9644L29.7584 40.9563L29.7687 40.9373L29.7944 40.8884C29.8137 40.8509 29.8374 40.8035 29.8647 40.7462C29.9193 40.6314 29.9885 40.4768 30.067 40.2806C30.2239 39.8882 30.4175 39.331 30.6057 38.5971C30.9824 37.1279 31.335 34.9607 31.335 32.0004C31.335 29.0401 30.9824 26.8728 30.6057 25.4036C30.4175 24.6697 30.2239 24.1125 30.067 23.7201C29.9885 23.524 29.9193 23.3693 29.8647 23.2546C29.8374 23.1972 29.8137 23.1499 29.7944 23.1123L29.7687 23.0634L29.7584 23.0444L29.754 23.0363L29.7519 23.0326L29.75 23.0291Z" fill="#D4A63A"/>
<path d="M36.3637 22.2521C37.3293 21.7156 38.5469 22.0635 39.0833 23.0291L37.335 24.0004C39.0833 23.0291 39.0853 23.0326 39.0853 23.0326L39.0873 23.0363L39.0918 23.0444L39.102 23.0634L39.1277 23.1123C39.147 23.1499 39.1707 23.1972 39.198 23.2546C39.2526 23.3693 39.3218 23.524 39.4003 23.7201C39.5573 24.1125 39.7508 24.6697 39.939 25.4036C40.3157 26.8728 40.6683 29.0401 40.6683 32.0004C40.6683 34.9607 40.3157 37.1279 39.939 38.5971C39.7508 39.331 39.5573 39.8882 39.4003 40.2806C39.3218 40.4768 39.2526 40.6314 39.198 40.7462C39.1707 40.8035 39.147 40.8509 39.1277 40.8884L39.102 40.9373L39.0918 40.9563L39.0873 40.9644L39.0853 40.9682L39.0833 40.9717C38.5469 41.9372 37.3293 42.2851 36.3637 41.7487C35.4063 41.2168 35.0562 40.0153 35.5732 39.0537L35.5866 39.0264C35.6049 38.988 35.6398 38.9115 35.6864 38.7951C35.7794 38.5625 35.9192 38.1697 36.0643 37.6036C36.3543 36.4728 36.6683 34.64 36.6683 32.0004C36.6683 29.3607 36.3543 27.5279 36.0643 26.3971C35.9192 25.831 35.7794 25.4382 35.6864 25.2056C35.6398 25.0893 35.6049 25.0127 35.5866 24.9743L35.5732 24.947C35.0562 23.9855 35.4063 22.7839 36.3637 22.2521Z" fill="#D4A63A"/>
</svg>
