<svg width="64" height="64" viewBox="0 0 64 64" fill="none" xmlns="http://www.w3.org/2000/svg">
<path opacity="0.5" d="M32.1389 5.33337C36.6195 5.33334 40.1685 5.33331 42.946 5.71325C45.8045 6.10426 48.1181 6.92812 49.9427 8.78452C51.7672 10.6409 52.577 12.9949 52.9613 15.9032C53.3347 18.7292 53.3347 22.3401 53.3346 26.8989V37.1013C53.3347 41.6601 53.3347 45.2709 52.9613 48.0968C52.577 51.0052 51.7672 53.3592 49.9427 55.2156C48.1181 57.072 45.8045 57.8958 42.946 58.2868C40.1685 58.6668 36.6195 58.6667 32.139 58.6667H32.1388H31.8637H31.8635C27.383 58.6667 23.8341 58.6668 21.0566 58.2868C18.1982 57.8958 15.8845 57.072 14.06 55.2156C12.2354 53.3592 11.4256 51.0052 11.0413 48.0968C10.6679 45.2709 10.6679 41.66 10.668 37.1013V37.1012V26.8988V26.8988C10.6679 22.34 10.6679 18.7292 11.0413 15.9032C11.4256 12.9949 12.2354 10.6409 14.06 8.78452C15.8845 6.92812 18.1982 6.10426 21.0566 5.71325C23.8341 5.33331 27.3831 5.33334 31.8637 5.33337H31.8638H32.1389H32.1389Z" fill="#D4A63A"/>
<path d="M22.8555 49.363C22.8555 48.3355 23.6741 47.5026 24.684 47.5026H39.3126C40.3225 47.5026 41.1412 48.3355 41.1412 49.363C41.1412 50.3905 40.3225 51.2235 39.3126 51.2235H24.684C23.6741 51.2235 22.8555 50.3905 22.8555 49.363Z" fill="#D4A63A"/>
</svg>
