<svg width="64" height="64" viewBox="0 0 64 64" fill="none" xmlns="http://www.w3.org/2000/svg">
<path fill-rule="evenodd" clip-rule="evenodd" d="M9.00671 13.5531C8 14.9874 8 19.2509 8 27.7778V31.977C8 47.0119 19.3039 54.308 26.3962 57.4061C28.32 58.2465 29.282 58.6667 32 58.6667V5.33337C29.8363 5.33337 27.7466 6.04868 23.5673 7.47929L22.0398 8.00215C14.0222 10.7466 10.0134 12.1188 9.00671 13.5531Z" fill="#D4A63A"/>
<path opacity="0.5" d="M56 31.977V27.7778C56 19.2509 56 14.9874 54.9933 13.5531C53.9866 12.1188 49.9778 10.7466 41.9602 8.00216L40.4327 7.47929C36.2534 6.04868 34.1637 5.33337 32 5.33337V58.6667C34.718 58.6667 35.68 58.2465 37.6038 57.4061C44.6961 54.308 56 47.0119 56 31.977Z" fill="#D4A63A"/>
</svg>
