<svg width="209" height="78" viewBox="0 0 209 78" fill="none" xmlns="http://www.w3.org/2000/svg">
<path fill-rule="evenodd" clip-rule="evenodd" d="M12.5965 37.5119C12.598 32.7261 14.4983 28.1365 17.8802 24.7503C21.2622 21.3642 25.8495 19.4583 30.6353 19.4509V25.9834C28.3534 25.9873 26.124 26.6681 24.2293 27.9396C22.3345 29.2111 20.8596 31.0162 19.9912 33.1263C19.1229 35.2365 18.9001 37.5568 19.351 39.7936C19.802 42.0305 20.9065 44.0832 22.5246 45.692C24.1428 47.3009 26.2019 48.3934 28.4413 48.8315C30.6807 49.2695 32.9998 49.0332 35.1048 48.1526C37.2099 47.2721 39.0064 45.7867 40.2669 43.8846C41.5275 41.9826 42.1953 39.7493 42.186 37.4674H48.7157C48.7157 47.4788 40.6466 55.5729 30.6547 55.5729C28.2827 55.5736 25.9338 55.1069 23.7422 54.1996C21.5506 53.2922 19.5593 51.9618 17.8821 50.2846C16.2048 48.6073 14.8745 46.616 13.9671 44.4244C13.0597 42.2328 12.5958 39.8839 12.5965 37.5119Z" fill="black"/>
<path d="M22.7031 37.5117C22.7053 35.3897 23.5491 33.3553 25.0492 31.8546C26.5494 30.3539 28.5836 29.5095 30.7055 29.5065C32.828 29.508 34.8631 30.3514 36.3644 31.8516C37.8657 33.3519 38.7105 35.3865 38.7135 37.5089C38.7146 38.5606 38.5083 39.6022 38.1064 40.5741C37.7045 41.546 37.115 42.4291 36.3714 43.1729C35.6279 43.9166 34.745 44.5065 33.7733 44.9087C32.8015 45.3109 31.76 45.5176 30.7083 45.5169C29.6567 45.518 28.6153 45.3116 27.6436 44.9097C26.6718 44.5078 25.7889 43.9182 25.0453 43.1746C24.3018 42.4311 23.7122 41.5482 23.3103 40.5764C22.9083 39.6047 22.702 38.5633 22.7031 37.5117ZM36.26 27.367C36.2589 26.7635 36.3769 26.1657 36.6074 25.608C36.8378 25.0502 37.1761 24.5435 37.6028 24.1168C38.0295 23.69 38.5363 23.3518 39.094 23.1213C39.6518 22.8909 40.2495 22.7728 40.853 22.7739C41.4565 22.7728 42.0542 22.8909 42.612 23.1213C43.1697 23.3518 43.6765 23.69 44.1032 24.1168C44.53 24.5435 44.8682 25.0502 45.0987 25.608C45.3291 26.1657 45.4472 26.7635 45.4461 27.367C45.4472 27.9705 45.3291 28.5682 45.0987 29.126C44.8682 29.6837 44.53 30.1905 44.1032 30.6172C43.6765 31.0439 43.1697 31.3822 42.612 31.6126C42.0542 31.8431 41.4565 31.9611 40.853 31.96C40.2495 31.9611 39.6518 31.8431 39.094 31.6126C38.5363 31.3822 38.0295 31.0439 37.6028 30.6172C37.1761 30.1905 36.8378 29.6837 36.6074 29.126C36.3769 28.5682 36.2589 27.9705 36.26 27.367ZM177.272 33.0854L176.716 35.8278C175.399 41.7824 174.932 43.6997 173.793 49.6292L173.548 49.8515L169.936 49.9626L169.758 49.7181L171.206 43.6107L171.631 41.6018C170.078 41.5572 168.525 41.535 166.971 41.5351C165.765 41.5351 164.832 41.5573 163.893 41.5796C163.295 44.2527 162.746 46.9364 162.245 49.6292L161.998 49.8515L158.385 49.9626L158.208 49.7181L159.658 43.6107L160.236 40.9572C161.195 36.7642 161.375 35.8501 161.931 31.9934L162.176 31.7488C163.826 31.5266 164.229 31.4571 165.924 31.1014L166.102 31.3459L165.721 33.1076L165.165 35.8501L164.585 38.437C165.879 38.4592 167.194 38.4814 168.511 38.4814C169.892 38.4814 170.806 38.4592 172.345 38.4147C172.834 36.1391 173.034 34.9137 173.482 31.9684L173.726 31.7238C175.399 31.5015 175.78 31.4349 177.494 31.0792L177.675 31.3237L177.272 33.0854ZM133.725 41.0461C133.984 40.047 134.127 39.0214 134.15 37.9896C134.15 34.3774 131.83 33.7772 130.516 33.7772C124.92 33.7772 124.206 42.4743 124.206 43.7886C124.206 46.6422 125.923 47.8898 127.84 47.8898C131.652 47.8898 133.081 43.9886 133.725 41.0461ZM137.429 42.1603C136.648 45.2362 134.462 50.5434 127.774 50.5434C123.022 50.5434 120.438 48.0926 120.438 43.2301C120.438 42.6077 120.482 41.9158 120.594 41.1795L120.66 40.6432C121.952 32.6186 125.431 24.9913 133.081 24.9246C134.106 24.9023 136.157 24.8134 137.563 24.48L137.049 27.6893C135.623 28.0477 133.392 28.245 132.075 28.245C130.449 28.27 129.335 28.8702 128.554 29.6288C127.954 30.2335 127.47 30.9437 127.126 31.7238C128.154 31.4126 129.266 31.2126 130.516 31.2126C135.176 31.2126 137.963 33.8217 137.963 38.4147C137.963 39.6401 137.74 40.9127 137.429 42.1603ZM183.404 38.8815C184.252 38.148 184.743 37.6784 185.924 36.542C187.55 34.9193 189.155 33.2761 190.74 31.6127L191.143 31.4126H195.222L195.333 31.7266C194.977 32.0378 194.799 32.1934 193.371 33.3993C192.815 33.8661 192.457 34.2218 191.787 34.8248L187.175 39.0844L192.682 49.5625L192.46 49.8543L188.514 49.9654L188.222 49.7431C187.305 47.5341 187.061 47.0451 185.769 44.4582L183.271 39.4178C182.491 42.8231 181.777 46.2433 181.131 49.6764L180.887 49.8987L177.275 50.0099L177.094 49.7654L178.544 43.6524L179.1 41.0016C180.061 36.8087 180.239 35.8945 180.795 32.0378L181.042 31.7933C182.715 31.571 183.093 31.5015 184.81 31.1459L184.988 31.3904L184.61 33.152L184.054 35.8945L183.404 38.8815ZM152.009 45.3474C151.631 45.6614 151.231 46.017 150.828 46.2643C149.911 46.8423 148.688 47.0896 147.73 47.0896C144.473 47.0896 143.559 44.3471 143.559 42.6521C143.559 42.4743 143.626 37.8785 147.371 35.3388C149.466 33.9106 151.786 33.8439 152.967 33.8439C153.503 33.8439 154.04 33.8661 154.573 33.8661L152.009 45.3474ZM158.833 31.4571L158.655 31.1681L153.726 31.1459C150.447 31.1459 145.857 31.346 142.534 35.2471C141.039 37.0338 139.68 40.0875 139.68 42.8966C139.68 47.3341 142.645 49.8987 146.279 49.8987C149.311 49.8987 150.872 48.5817 151.475 48.0926L151.228 49.5181L151.408 49.7654L154.751 49.6987L154.998 49.4514C155.71 45.2168 155.957 43.8553 157.205 38.3925L158.833 31.4571ZM64.8936 50.4322C61.0369 50.4322 55.463 49.2069 57.4913 40.2875C58.2499 36.9421 60.5673 29.8288 70.0896 29.8288C79.3423 29.8288 77.9614 37.4117 77.4029 40.0875C75.6857 47.6453 71.0704 50.4322 64.8936 50.4322ZM66.1662 46.5088C68.8864 46.5088 70.1563 43.6746 70.9815 40.043C71.5622 37.4783 72.1846 33.7078 68.9087 33.7078C66.1217 33.7078 64.8713 36.3864 64.0683 40.043C63.2903 43.4079 63.1097 46.5088 66.1662 46.5088ZM87.5254 50.0071C85.7415 50.0071 82.7989 50.0071 81.5736 50.0543L81.3707 49.807C81.7042 48.6261 82.5544 45.4168 83.4241 41.5129C84.1355 38.3453 84.7606 35.5583 85.0079 34.2885C83.513 34.333 81.2151 34.333 80.0787 34.3552L79.8786 34.0884C80.1676 33.1298 80.5899 31.4571 80.8595 30.454L81.1929 30.254C82.196 30.2984 85.9638 30.3206 89.0202 30.3206C92.6991 30.3206 96.2891 30.254 97.0477 30.2095L97.2922 30.4096C97.0254 31.2987 96.5336 33.1298 96.2891 34.044L95.9307 34.2663C94.458 34.244 93.3465 34.244 91.207 34.244C91.0264 35.0471 90.4457 37.4339 89.4871 41.6685C88.8874 44.3263 88.338 46.9951 87.8393 49.6737L87.5254 50.0071ZM108.195 34.7581C106.992 34.7581 105.653 34.8025 105.053 34.8025C104.875 35.6278 104.136 38.6815 103.469 41.6463C102.691 45.1473 101.974 48.4261 101.707 49.7876L101.352 50.0099C99.5234 50.0099 97.1838 50.0099 95.3083 50.0516L95.1304 49.807C95.5083 48.2705 96.4919 44.122 97.4255 39.9735C98.3647 35.8056 99.1872 31.7238 99.4345 30.5652L99.7457 30.2984C101.752 30.2984 103.783 30.3651 108.776 30.3651C112.677 30.3651 116.47 30.254 118.474 30.2095L118.654 30.4318C118.387 31.4321 117.27 36.228 116.201 40.9794C115.331 44.8139 114.528 48.6261 114.328 49.7181L114.061 49.9404C112.455 49.9404 109.532 49.9404 107.995 49.9876L107.84 49.7181C108.173 48.4261 108.887 45.4141 109.735 41.6907C110.382 38.8593 111.007 35.8501 111.274 34.7359C110.627 34.7803 109.312 34.7581 108.195 34.7581Z" fill="black"/>
</svg>
