<svg width="209" height="78" viewBox="0 0 209 78" fill="none" xmlns="http://www.w3.org/2000/svg">
<mask id="mask0_128_3904" style="mask-type:luminance" maskUnits="userSpaceOnUse" x="13" y="24" width="183" height="38">
<path d="M13.6953 24.8445H195.058V61.286H13.6953V24.8445Z" fill="white"/>
</mask>
<g mask="url(#mask0_128_3904)">
<path d="M188.845 32.0435L182.657 38.9789V32.0435H178.181V49.5487H182.657V42.1826L189.282 49.5515H195.067L186.92 40.3793L194.478 32.0435H188.845ZM170.284 38.5732H164.096V32.0435H159.617V49.5487H164.096V42.6494H170.284V49.5515H174.763V32.0462H170.284V38.5732Z" fill="black"/>
<mask id="mask1_128_3904" style="mask-type:luminance" maskUnits="userSpaceOnUse" x="13" y="24" width="183" height="38">
<path d="M195.079 24.8425H13.7109V61.2868H195.074V24.8425H195.079Z" fill="white"/>
</mask>
<g mask="url(#mask1_128_3904)">
<path d="M40.2995 41.5253C40.1939 44.793 39.7715 45.4432 37.9377 45.4432V49.5499H38.6212C43.1976 49.5499 44.2979 47.1853 44.4674 41.931L44.6536 36.1154H48.9493V49.5499H53.4256V32.0447H40.6135L40.2995 41.5253ZM64.5567 37.3602H61.3224V32.0391H56.8433V49.5499H64.6179C69.5027 49.5499 71.2421 46.3768 71.2421 43.3898C71.2421 39.5358 68.8164 37.3602 64.5567 37.3602ZM64.215 45.6904H61.3224V41.2447H64.215C65.771 41.2447 66.7018 41.9282 66.7018 43.3898C66.7018 44.9736 65.8016 45.6904 64.215 45.6904ZM85.8242 31.6362V25.1371H81.3479V31.639C76.2158 32.0725 72.762 35.7125 72.762 40.7806C72.762 45.8461 76.2158 49.5194 81.3479 49.9556V56.5493H85.8242V49.9556C90.9563 49.5499 94.4101 45.8794 94.4101 40.7806C94.4101 35.6791 90.9563 32.0364 85.8242 31.6362ZM81.3479 45.7238C78.861 45.3848 77.305 43.5176 77.305 40.7806C77.305 38.0465 78.861 36.1793 81.3479 35.8375V45.7293V45.7238ZM85.8242 45.7238V35.8347C88.3111 36.1793 89.8671 38.0437 89.8671 40.7806C89.8671 43.5148 88.3111 45.382 85.8242 45.7238ZM111.204 44.1705V38.2938C111.204 34.0008 108.467 31.2945 103.866 31.2945C99.2616 31.2945 96.5886 34.1564 96.3718 37.1434H100.909C101.065 36.4905 101.748 35.3707 103.866 35.3707C105.608 35.3707 106.728 36.1793 106.728 38.2938H102.276C98.2974 38.2938 95.9328 40.3777 95.9328 43.8593C95.9328 47.3409 98.5169 49.9834 102.246 49.9834C104.977 49.9834 106.497 48.6941 107.158 47.7133C107.747 48.897 109.056 49.5472 110.765 49.5472H112.321V45.5098C111.513 45.5098 111.201 45.1347 111.201 44.1733M106.722 43.023C106.722 45.043 105.291 46.1934 103.427 46.1934C101.81 46.1934 100.537 45.6043 100.537 43.8593C100.537 42.1199 101.935 41.8726 103.146 41.8726H106.722V43.023ZM130.39 34.5288H125.389V29.5884H136.99V25.1426H120.693V49.5527H130.396C135.775 49.5527 138.854 46.8797 138.854 41.9671C138.854 37.3324 135.775 34.5315 130.396 34.5315M130.179 45.1347H125.389V38.7912H130.179C132.663 38.7912 134.066 39.9415 134.066 41.9616C134.066 43.9844 132.669 45.1347 130.179 45.1347ZM155.987 44.1705V38.2938C155.987 34.0008 153.25 31.2945 148.649 31.2945C144.047 31.2945 141.371 34.1564 141.155 37.1434H145.695C145.848 36.4905 146.534 35.3707 148.649 35.3707C150.391 35.3707 151.511 36.1793 151.511 38.2938H147.059C143.08 38.2938 140.716 40.3777 140.716 43.8593C140.716 47.3409 143.3 49.9834 147.029 49.9834C149.76 49.9834 151.28 48.6941 151.941 47.7133C152.533 48.897 153.839 49.5472 155.548 49.5472H157.104V45.5098C156.298 45.5098 155.984 45.1347 155.984 44.1733M151.508 43.023C151.508 45.043 150.074 46.1934 148.21 46.1934C146.592 46.1934 145.32 45.6043 145.32 43.8593C145.32 42.1199 146.718 41.8726 147.932 41.8726H151.508V43.023ZM37.657 56.3103H13.7109V61.284H37.657V56.3103ZM30.0381 28.4881C29.3517 26.4513 28.5654 24.8425 25.8701 24.8425C23.1749 24.8425 22.3357 26.443 21.6189 28.4881L14.2083 49.5499H19.1237L20.8325 44.5429H30.2854L31.8719 49.5499H37.0957L30.0381 28.4881ZM22.2635 40.3138L25.6228 30.3331H25.7451L28.9183 40.3138H22.2635Z" fill="black"/>
</g>
</g>
</svg>
