<svg width="337" height="78" viewBox="0 0 337 78" fill="none" xmlns="http://www.w3.org/2000/svg">
<path d="M13.1016 37.54C13.1016 49.4269 22.7545 59.0798 34.6997 59.0798H35.5833V50.8995H34.6997C32.9449 50.901 31.207 50.5564 29.5855 49.8856C27.964 49.2147 26.4907 48.2307 25.2498 46.9899C24.009 45.749 23.025 44.2757 22.3541 42.6542C21.6833 41.0327 21.3387 39.2948 21.3402 37.54C21.3482 33.9995 22.7584 30.6064 25.2622 28.1032C27.7659 25.6 31.1593 24.1905 34.6997 24.1832H35.5833V15.9446H34.6997C31.8627 15.9413 29.0529 16.4976 26.4312 17.5817C23.8095 18.6658 21.4274 20.2563 19.4212 22.2622C17.415 24.2682 15.8241 26.6501 14.7397 29.2717C13.6553 31.8932 13.0986 34.703 13.1016 37.54Z" fill="black"/>
<path d="M38.9827 16.3557V27.5952H34.687C33.3789 27.5886 32.0826 27.8414 30.8729 28.3389C29.6631 28.8365 28.5641 29.5691 27.6393 30.4941C26.7145 31.4192 25.9823 32.5184 25.485 33.7283C24.9878 34.9381 24.7353 36.2346 24.7423 37.5426C24.7423 43.0137 29.2159 47.4873 34.6898 47.4873H38.9827V58.7268C48.8107 56.7262 56.2268 48.0152 56.2268 37.601C56.244 32.6142 54.5366 27.7748 51.3939 23.9028C48.2512 20.0309 43.8664 17.3646 38.9827 16.3557ZM79.9672 25.1528C84.1935 25.1528 87.6167 27.0256 89.0616 28.4177L86.6553 31.3602C85.4772 30.2877 82.857 28.8456 79.9672 28.8456C74.6712 28.8456 71.3535 32.4828 71.3535 37.4593C71.3535 42.433 74.51 46.073 80.0228 46.073C83.2293 46.073 86.0135 44.3613 87.1916 43.1832L89.4895 46.2341C88.0447 47.7318 84.4075 49.763 79.9672 49.763C72.1566 49.763 67.3412 44.5197 67.3412 37.4037C67.3412 30.396 72.3149 25.1528 79.9672 25.1528ZM104.044 25.1528C111.268 25.1528 116.509 30.396 116.509 37.5121C116.509 44.6253 111.266 49.8713 104.044 49.8713C96.8195 49.8713 91.5763 44.6281 91.5763 37.5121C91.5763 30.396 96.8195 25.1528 104.044 25.1528ZM104.044 46.1258C108.912 46.1258 112.549 42.433 112.549 37.5121C112.549 32.5383 108.965 28.8984 104.044 28.8984C99.1758 28.8984 95.5358 32.5911 95.5358 37.5121C95.5358 42.433 99.1758 46.1258 104.044 46.1258ZM141.336 42.433C141.336 45.9118 139.088 49.2823 133.364 49.2823H120.791V25.6891H132.614C137.429 25.6891 140.158 28.6316 140.158 32.0021C140.158 33.8749 139.302 35.5865 137.215 36.9758C139.302 37.6704 141.336 39.2265 141.336 42.433ZM124.642 29.3791V35.6921L132.133 35.6393C134.809 35.6393 136.201 34.1388 136.201 32.3744C136.201 30.7711 135.023 29.3791 132.669 29.3791H124.642ZM133.578 45.5895C136.306 45.5895 137.376 44.0918 137.376 42.433C137.376 40.6686 136.145 39.1709 133.686 39.1709H124.695V45.5895H133.578ZM156.851 37.1369L167.282 49.2823H162.15L153.425 38.9569H148.932V49.2823H145.026V25.6891H148.932V35.4253H153.425L161.934 25.6891H167.124L156.851 37.1369Z" fill="black"/>
<path d="M179.277 25.1539C186.502 25.1539 191.745 30.3972 191.745 37.5132C191.745 44.6264 186.502 49.8725 179.28 49.8725C172.056 49.8725 166.812 44.6292 166.812 37.5132C166.812 30.3972 172.056 25.1539 179.28 25.1539H179.277ZM179.277 46.1269C184.148 46.1269 187.785 42.4341 187.785 37.5132C187.785 32.5395 184.201 28.8995 179.28 28.8995C174.409 28.8995 170.772 32.5923 170.772 37.5132C170.772 42.4341 174.412 46.1269 179.28 46.1269H179.277ZM217.906 25.6902H221.651V49.2834H217.747V31.7337L209.989 42.1146H207.633L199.878 31.7337V49.2834H195.971V25.6902H199.717L208.811 37.7799L217.906 25.6902ZM239.415 35.3181C244.605 35.3181 247.439 38.369 247.439 42.2757C247.439 46.1797 244.605 49.2834 239.682 49.2834H226.844V25.6902H245.247V29.3802H230.748V35.3181H239.415ZM239.523 45.5906C242.196 45.5906 243.427 44.0929 243.427 42.3285C243.427 40.5613 242.196 39.0637 239.523 39.0637H230.748V45.5934H239.523V45.5906ZM269.001 49.2834L266.434 43.3983H255.253L252.685 49.2834H248.459L258.732 25.6902H263.011L273.283 49.2834H269.001ZM256.803 39.8667H264.936L260.871 30.45L256.803 39.8667ZM293.667 25.6902H297.574V49.2834H293.667V39.1692H280.024V49.2834H276.12V25.6902H280.024V35.4792H293.667V25.6902ZM314.585 37.1381L325.071 49.2834H319.883L311.161 38.9581H306.668V49.2834H302.762V25.6902H306.668V35.4265H311.161L319.669 25.6902H324.857L314.585 37.1381Z" fill="black"/>
</svg>
