<svg width="406" height="78" viewBox="0 0 406 78" fill="none" xmlns="http://www.w3.org/2000/svg">
<mask id="mask0_128_3894" style="mask-type:luminance" maskUnits="userSpaceOnUse" x="12" y="14" width="381" height="46">
<path d="M12.6016 14.4142H392.816V59.2193H12.6016V14.4142Z" fill="white"/>
</mask>
<g mask="url(#mask0_128_3894)">
<path d="M18.1961 37.4277C18.1117 37.1053 18.1117 36.7666 18.1961 36.4441C18.2567 36.2544 18.3556 36.0791 18.4865 35.9291C18.6174 35.779 18.7777 35.6574 18.9575 35.5716C18.9575 35.5716 21.0859 34.8103 22.8308 32.1345C24.8509 29.0252 27.6323 25.8632 34.0147 25.8632V27.4442C34.0147 27.4442 34.1259 28.8613 32.7616 29.028C31.1778 29.2447 28.0129 30.4451 25.9401 33.8822C24.3591 36.6081 22.2862 36.9915 22.2862 36.9915L34.1231 48.9395C31.3612 48.9395 29.6885 48.8478 29.1049 48.6644C28.4158 48.4838 27.5045 47.7753 26.3791 46.5388L18.5768 38.1919C18.3794 37.9788 18.2472 37.7136 18.1961 37.4277Z" fill="black"/>
<path fill-rule="evenodd" clip-rule="evenodd" d="M54.2573 39.6092C54.2573 45.9361 51.5676 49.1009 46.1854 49.1009C42.9483 49.1009 40.7838 48.2645 39.6918 46.5918V55.9196C37.7273 55.9196 36.5825 55.7918 36.2547 55.5389C35.9296 55.2833 35.7656 54.3553 35.7656 52.7548V30.3342C37.255 30.3342 38.1274 30.462 38.3831 30.7176C38.6387 30.9343 38.7637 31.6985 38.7637 33.0072C39.9308 31.0788 42.3648 30.1174 46.0743 30.1174C51.5315 30.1174 54.2573 33.2795 54.2573 39.6092ZM50.22 39.6092C50.22 37.5363 49.9143 36.0081 49.2947 35.0245C48.4222 33.863 47.0023 33.2795 45.0378 33.2795C42.3482 33.2795 40.7643 33.5518 40.292 34.0992C39.8557 34.6438 39.639 36.4805 39.639 39.6092C39.639 41.682 39.9447 43.1908 40.5643 44.1383C41.4006 45.3359 42.8566 45.9361 44.9295 45.9361C47.5831 45.9361 49.1474 45.6832 49.6198 45.1719C50.0199 44.6273 50.22 42.7712 50.22 39.6092ZM74.0104 38.0809C74.0104 39.6092 73.8437 40.4983 73.5186 40.754C73.1546 41.0096 71.9543 41.1374 69.9175 41.1374H59.934C59.934 42.5184 60.3897 43.627 61.2955 44.4634C62.2069 45.3359 63.5184 45.7721 65.2272 45.7721H69.4257C70.9901 45.7721 71.8987 45.8999 72.1543 46.1556C72.4461 46.4084 72.5906 47.3198 72.5906 48.8814H65.3884C59.0615 48.8453 55.8967 45.736 55.8967 39.5536C55.8967 33.2628 59.0976 30.1174 65.4995 30.1174C68.2615 30.1174 70.4093 30.8788 71.9348 32.407C73.3186 33.8241 74.0104 35.7163 74.0104 38.0809ZM69.9175 38.0809C69.9731 34.6994 68.3893 33.1156 65.1161 33.1156C62.5709 33.1156 61.0593 33.3156 60.587 33.7157C60.1535 34.152 59.934 35.608 59.934 38.0809H69.9175ZM94.5694 48.7786V49.8678C94.5694 51.4322 94.4249 52.3408 94.1331 52.5964C93.7691 52.8493 92.6243 52.9771 90.696 52.9771V48.8314H78.2589V52.9771C76.3306 52.9771 75.183 52.8493 74.8218 52.5964C74.53 52.3408 74.3855 51.4294 74.3855 49.8678V48.8314C74.3855 47.2476 74.4939 46.3779 74.7662 46.1584C74.9496 45.9777 75.4748 45.8499 76.35 45.7777C78.8563 43.4853 79.5676 36.9945 79.5676 33.3378L79.6232 32.9572C79.6232 31.6123 79.7483 30.8288 80.0039 30.612C80.2567 30.3564 81.1681 30.2286 82.7325 30.2286H89.3873C90.9155 30.2286 91.8047 30.3564 92.0603 30.612C92.3131 30.8649 92.4604 31.6679 92.4965 33.0127V45.7777C93.4413 45.8138 94.0053 45.9388 94.1859 46.1584C94.4416 46.414 94.5694 47.2865 94.5694 48.7786ZM88.5676 44.5773V33.3378H83.0604C83.0604 34.4854 82.952 36.5027 82.6797 38.6839C82.3518 40.8679 81.7516 43.5409 80.6069 45.7777H87.0977C87.1338 45.7388 87.2088 45.7221 87.3172 45.7221C88.2981 45.7221 88.5176 45.1775 88.5703 44.8496L88.5676 44.5773Z" fill="black"/>
<path d="M17.8038 48.9419C15.7671 48.9419 14.5667 48.7946 14.2028 48.5028C13.8749 48.25 13.7109 47.3053 13.7109 45.6686V25.9183C15.7477 25.8822 16.948 25.9933 17.312 26.2462C17.6399 26.5018 17.8038 27.3576 17.8038 28.8108V48.9419ZM96.5219 48.8307V30.2307C98.5586 30.2668 99.7395 30.3946 100.067 30.6141C100.429 30.8309 100.612 31.6311 100.612 33.0148V43.8681L107.814 32.5758C108.614 31.4144 109.215 30.7419 109.615 30.5586C109.976 30.3752 110.94 30.2668 112.504 30.2307H114.633V45.6159C114.633 47.2163 114.469 48.1444 114.141 48.3972C113.816 48.689 112.613 48.8335 110.54 48.8335V35.0849L103.341 46.2688C102.468 47.5414 101.848 48.2889 101.484 48.5056C101.084 48.7251 100.179 48.8335 98.7587 48.8335H96.5219V48.8307ZM134.38 30.2807C134.38 31.9534 134.253 32.9176 133.997 33.1705C133.744 33.4622 132.78 33.6095 131.107 33.6095H127.559V48.8279C125.558 48.8279 124.375 48.6834 124.011 48.3917C123.686 48.1388 123.522 47.2108 123.522 45.6103V33.6067H116.647C116.647 31.934 116.775 30.9726 117.028 30.7169C117.284 30.4252 118.156 30.2807 119.648 30.2807H134.375H134.38Z" fill="black"/>
<path d="M182.498 37.0473C182.498 48.8286 172.912 58.4314 161.111 58.4314C149.313 58.4314 139.727 48.8286 139.727 37.0473C139.727 25.2632 149.313 15.6603 161.111 15.6603C172.912 15.6603 182.498 25.2632 182.498 37.0473Z" fill="#F5F5FA"/>
<path fill-rule="evenodd" clip-rule="evenodd" d="M141.253 37.047C141.249 34.4383 141.76 31.8545 142.757 29.4437C143.753 27.0328 145.216 24.8423 147.06 22.9976C148.905 21.1528 151.095 19.6901 153.506 18.6933C155.916 17.6964 158.5 17.185 161.109 17.1882C166.374 17.1912 171.424 19.2845 175.147 23.0082C178.87 26.7318 180.963 31.7813 180.965 37.047C180.962 42.3122 178.869 47.3609 175.146 51.084C171.423 54.8071 166.374 56.9 161.109 56.9029C158.5 56.9066 155.916 56.3955 153.505 55.399C151.095 54.4025 148.904 52.9401 147.059 51.0956C145.215 49.2511 143.752 47.0608 142.755 44.6501C141.758 42.2394 141.25 39.6557 141.253 37.047ZM151.256 37.047L161.109 46.8666L170.906 37.047L161.109 27.2274L151.259 37.047H151.256ZM212.719 48.8283C211.154 48.8283 210.226 48.7171 209.935 48.5004C209.682 48.2837 209.554 47.5196 209.554 46.2108V32.7874C209.554 31.4397 209.682 30.659 209.935 30.4394C210.226 30.2227 211.154 30.1143 212.719 30.1143H220.738C225.536 30.1143 227.937 31.7509 227.937 35.0242C227.937 37.0609 227.192 38.314 225.7 38.7864L225.428 38.8975L225.7 39.0059C226.537 39.2977 227.229 39.8423 227.773 40.6425C228.284 41.4427 228.537 42.3514 228.537 43.3711C228.537 47.0055 225.975 48.8255 220.846 48.8255L212.719 48.8283ZM220.846 33.1152H213.208V37.7555H221.01C222.919 37.7555 223.844 37.6444 224.064 37.5332C224.175 37.4277 224.392 36.8275 224.392 35.4632C224.392 33.9349 223.355 33.1152 220.846 33.1152ZM224.828 43.3183C224.828 41.7345 223.683 40.862 221.01 40.862H213.208V45.9358H220.954C223.083 45.9358 224.175 45.7718 224.447 45.6107C224.608 45.4995 224.828 44.8465 224.828 43.3183ZM249.269 39.4449C249.269 45.7718 246.576 48.9367 241.194 48.9367C237.957 48.9367 235.792 48.1031 234.703 46.4276V55.7554C232.739 55.7554 231.591 55.6109 231.266 55.3191C230.938 55.1024 230.774 54.1938 230.774 52.5933V30.1699C232.266 30.1699 233.136 30.2977 233.392 30.5534C233.647 30.734 233.775 31.4981 233.775 32.8429C234.939 30.9174 237.376 29.9532 241.083 29.9532C246.54 29.9532 249.269 33.118 249.269 39.4449ZM245.231 39.4449C245.231 37.3721 244.903 35.8438 244.248 34.8602C243.414 33.6988 242.014 33.118 240.049 33.118C237.357 33.118 235.776 33.3709 235.303 33.8794C234.867 34.4268 234.647 36.2801 234.647 39.4449C234.647 41.5178 234.956 43.0099 235.576 43.9185C236.409 45.1188 237.868 45.719 239.938 45.719C242.63 45.719 244.175 45.4634 244.578 44.9549C245.012 44.4464 245.231 42.6098 245.231 39.4449ZM270.378 39.3894C270.378 45.6829 267.216 48.8283 260.886 48.8283C254.595 48.8283 251.45 45.6829 251.45 39.3894C251.45 33.1347 254.615 30.006 260.941 30.006C267.235 30.006 270.378 33.1347 270.378 39.3894ZM266.343 39.3894C266.343 37.4249 265.999 35.9522 265.307 34.9714C264.47 33.7349 263.014 33.1152 260.944 33.1152C258.213 33.1152 256.615 33.3903 256.143 33.9349C255.704 34.4434 255.487 36.2634 255.487 39.3894C255.487 43.6101 257.288 45.719 260.886 45.719C263.614 45.719 265.198 45.4634 265.635 44.9549C266.107 44.4103 266.343 42.5542 266.343 39.3894ZM289.747 48.2253C289.419 48.481 288.219 48.6088 286.146 48.6088V33.9905H276.599V48.6088C274.562 48.6088 273.362 48.481 272.998 48.2281C272.67 47.9364 272.506 47.0083 272.506 45.4467V33.6626C272.506 31.8788 272.653 30.8451 272.945 30.5506C273.198 30.2255 274.162 30.0616 275.835 30.0616H286.963C288.6 30.0616 289.564 30.2255 289.856 30.5534C290.109 30.8423 290.256 31.8788 290.292 33.6626V45.4439C290.292 47.0083 290.109 47.9336 289.747 48.2253ZM310.203 48.6088C308.711 48.6088 307.839 48.5004 307.583 48.2837C307.33 48.0281 307.203 47.2084 307.203 45.8274C306.73 46.6276 305.874 47.3001 304.638 47.8474C303.257 48.5004 301.64 48.8283 299.784 48.8283C297.639 48.8283 295.894 48.3726 294.546 47.464C293.093 46.4831 292.365 45.0633 292.365 43.2099C292.365 41.39 292.982 39.9367 294.218 38.8447C295.566 37.6805 297.583 37.0998 300.275 37.0998H306.277C306.277 35.7522 305.858 34.7908 305.021 34.21C304.221 33.6626 302.912 33.3903 301.092 33.3903H297.166C295.71 33.3903 294.854 33.2625 294.602 33.0069C294.349 32.754 294.218 31.8426 294.218 30.2811H300.931C304.493 30.2811 306.986 30.9702 308.403 32.3539C309.603 33.5543 310.203 35.4798 310.203 38.1334V48.6088ZM306.277 40.7009V40.1007H300.876C298.656 40.1007 297.366 40.2257 297.002 40.4813C296.638 40.737 296.455 41.6261 296.455 43.1544C296.455 44.9355 297.891 45.8274 300.767 45.8274C303.529 45.8274 305.13 45.6107 305.566 45.1744C306.038 44.7354 306.277 43.2461 306.277 40.7009ZM207.045 48.8283H194.441C192.404 48.8283 191.204 48.7005 190.843 48.4476C190.515 48.1559 190.351 47.1917 190.351 45.5551V28.9696C190.351 27.2968 190.515 26.3327 190.843 26.0798C191.204 25.788 192.404 25.6436 194.441 25.6436H203.66C205.369 25.6436 206.353 25.788 206.606 26.0798C206.897 26.3327 207.045 27.2968 207.045 28.9696H194.441V35.4076H202.516C204.188 35.4076 205.172 35.5354 205.461 35.7883C205.753 36.08 205.897 37.0275 205.897 38.6252H194.441V45.5551H203.388C205.244 45.5551 206.297 45.6829 206.553 45.9358C206.881 46.1914 207.045 47.1583 207.045 48.8283ZM379.26 48.7755C377.187 48.7755 375.987 48.631 375.659 48.3393C375.295 48.0836 375.115 47.1194 375.115 45.4495V30.0088C377.187 30.0088 378.388 30.1199 378.713 30.3366C379.08 30.5895 379.26 31.4453 379.26 32.9013V48.7755ZM392.678 48.7199C390.441 48.7199 388.696 48.6644 388.207 48.5032C387.66 48.3559 386.935 47.7919 386.023 46.811L380.024 40.1562C379.795 39.8776 379.661 39.533 379.641 39.1726C379.641 39.117 379.585 38.1918 380.297 37.8111C380.297 37.8111 382.15 37.047 383.734 34.8102C385.479 32.3539 387.552 30.1171 392.678 30.1171V31.5342C392.678 31.5342 392.789 33.0625 391.697 33.2292C390.441 33.3903 388.696 33.7182 386.299 36.9358C384.931 38.6836 383.951 39.1198 383.951 39.1198L392.678 48.7199ZM351.874 48.6644C350.382 48.6644 349.51 48.5393 349.254 48.2837C349.001 48.0308 348.873 47.2111 348.873 45.8302C348.401 46.6638 347.545 47.3584 346.309 47.903C344.928 48.5199 343.308 48.8311 341.454 48.8311C339.309 48.8311 337.564 48.3754 336.217 47.4668C334.764 46.4831 334.036 45.0827 334.036 43.2655C334.036 41.4094 334.652 39.9562 335.889 38.9031C337.237 37.7 339.254 37.0998 341.946 37.0998H347.948C347.948 35.7549 347.529 34.8102 346.692 34.2656C345.892 33.6821 344.564 33.3903 342.71 33.3903H338.837C337.345 33.3903 336.492 33.2653 336.272 33.0097C336.017 32.754 335.889 31.8454 335.889 30.2811H342.599C346.164 30.2811 348.654 30.9896 350.074 32.4095C351.274 33.5737 351.874 35.4826 351.874 38.1362V48.6644ZM347.948 40.7564V40.1562H342.546C340.326 40.1562 339.034 40.3007 338.673 40.5925C338.309 40.8092 338.126 41.7012 338.126 43.2655C338.126 45.0105 339.562 45.883 342.438 45.883C345.2 45.883 346.82 45.6829 347.292 45.2828C347.729 44.8104 347.948 43.3016 347.948 40.7536V40.7564ZM332.563 41.9568C332.563 46.4665 329.381 48.7199 323.016 48.7199H317.453C315.524 48.7199 314.377 48.5921 314.016 48.3393C313.724 48.0475 313.577 47.1028 313.577 45.5023V28.8084C313.577 27.2079 313.724 26.2632 314.016 25.9742C314.377 25.7186 315.524 25.5908 317.453 25.5908H331.146C331.146 25.5908 331.035 27.4441 330.871 27.9359C330.707 28.4805 330.435 28.8084 329.29 28.8084H317.67V35.2992H323.888C328.253 35.2992 330.326 37.0998 331.199 38.0834L331.582 38.5724L331.743 38.9003C332.288 39.9367 332.563 40.9204 332.563 41.9568ZM328.362 41.9568C328.362 39.6644 326.67 38.5196 323.288 38.5196H317.67V45.5023H323.18C325.761 45.5023 327.27 45.3356 327.706 45.0105C328.145 44.7187 328.362 43.7018 328.362 41.954V41.9568ZM372.333 48.6671C370.258 48.6671 369.057 48.5393 368.732 48.2837C368.368 47.9919 368.185 47.0305 368.185 45.3939V40.3174H358.693V48.6644C356.656 48.6644 355.475 48.5365 355.147 48.2809C354.783 47.9892 354.6 47.0278 354.6 45.3912V30.0643C356.676 30.0643 357.876 30.2088 358.201 30.5006C358.529 30.7534 358.693 31.6815 358.693 33.282V37.1553H368.185V30.0643C370.296 30.0643 371.514 30.2088 371.841 30.5006C372.169 30.7534 372.333 31.6815 372.333 33.282V48.6671Z" fill="black"/>
</g>
</svg>
