<svg width="212" height="78" viewBox="0 0 212 78" fill="none" xmlns="http://www.w3.org/2000/svg">
<path d="M11.1172 10.7241H67.673V39.166C67.673 46.4571 63.783 53.198 57.47 56.8435L39.3951 67.28L21.3202 56.8435C18.2177 55.0516 15.6415 52.4747 13.8505 49.3716C12.0595 46.2686 11.1168 42.7488 11.1172 39.166V10.7241Z" fill="black"/>
<path fill-rule="evenodd" clip-rule="evenodd" d="M26.6406 25.6914V34.5385C27.8493 33.1714 30.05 32.2489 32.5646 32.2489H35.296V42.5298C35.296 45.2695 34.5541 47.6647 33.451 48.9817H45.3379C44.2376 47.6619 43.4957 45.2695 43.4957 42.5353V32.2489H46.2298C48.7445 32.2489 50.9451 33.1714 52.1538 34.5385V25.6914H26.6406Z" fill="#F5F5FA"/>
<path d="M78.7969 49.7691V25.259H103.696V30.8607H86.2213V34.3617H94.8711C101.001 34.3617 105.552 35.7649 105.552 42.0668C105.552 48.3743 101.001 49.7719 94.8711 49.7719H78.7969V49.7691ZM86.2213 39.9634V44.1647H94.9073C97.4275 44.1647 98.0221 43.6756 98.0221 42.064C98.0221 40.4525 97.4275 39.9634 94.9073 39.9634H86.2213ZM146.659 40.6636V49.7691H139.234V25.259H146.659V34.1895H158.81V25.2562H166.234V49.7691H158.81V40.6636H146.659ZM178.199 40.5247V49.7691H170.774V25.259H178.199V34.4006H182.645L190.386 25.259H198.791L189.088 36.7069V37.1654L199.28 49.7719H190.069L182.611 40.5275H178.199V40.5247ZM127.411 46.1625H115.819L114.524 49.7691H106.75L116.45 25.2562H127.167L136.834 49.7691H128.709L127.411 46.1625ZM125.416 40.5608L121.985 30.894H121.354L117.853 40.5608H125.416Z" fill="black"/>
</svg>
