<svg width="198" height="78" viewBox="0 0 198 78" fill="none" xmlns="http://www.w3.org/2000/svg">
<path fill-rule="evenodd" clip-rule="evenodd" d="M11.9375 40.5102C11.9375 46.0869 15.0634 51.708 22.06 51.708C29.0482 51.708 32.1769 46.0869 32.1769 40.5102C32.1769 36.7007 30.8932 32.3133 28.7509 28.7705C26.6669 25.3501 24.1662 23.3134 22.0572 23.3134C19.9455 23.3134 17.4419 25.3501 15.3774 28.7705C13.224 32.3133 11.9375 36.7007 11.9375 40.5102ZM83.7896 31.677H76.7041V24.8388H98.4607V31.677H91.3808V50.1853H83.7896V31.6798V31.677ZM114.652 31.677H125.783V24.8388H114.652C104.426 24.8388 98.9636 29.9348 98.9636 37.5148C98.9636 45.0949 104.424 50.1909 114.652 50.1909H125.783V43.3471H114.652C109.92 43.3471 106.805 41.6522 106.805 37.5148C106.805 33.3803 109.917 31.6853 114.652 31.6853V31.677ZM57.2205 39.9656L61.2662 24.8333H74.6785V50.1853H67.0901V29.5513L61.5718 50.1853H52.8692L47.3565 29.5652V50.1853H39.7653V24.836H53.1749L57.2205 39.9656ZM139.626 32.1827H136.95V34.6612H139.626C140.304 34.6612 140.709 34.3139 140.709 33.6692V33.2108C140.709 32.5495 140.359 32.1827 139.626 32.1827ZM140.304 37.5093H133.377V24.836H143.569V27.8647H136.95V29.5208H140.304C143.11 29.5208 144.466 30.9156 144.466 33.3775C144.466 35.9699 143.11 37.5121 140.304 37.5121V37.5093ZM152.713 32.3299H149.89L151.302 27.6452L152.713 32.3299ZM158.14 37.5093L154.236 24.8333H148.92L145.014 37.5121H148.351L149.065 35.0863H153.538L154.272 37.5121H158.14V37.5093ZM167.176 37.5093V32.605H163.091V37.5121H159.423V24.836H163.091V29.4846H167.176V24.836H170.844V37.5121H167.176V37.5093ZM177.354 29.4791H176.712V24.8388H173.044V37.5121H176.712V32.6078H177.24L180.633 37.5121H184.87L180.285 30.8795L184.503 24.836H180.633L177.354 29.4846V29.4791Z" fill="black"/>
</svg>
