<svg width="362" height="78" viewBox="0 0 362 78" fill="none" xmlns="http://www.w3.org/2000/svg">
<path d="M11.0938 35.8348V57.6385H17.8041V35.8348C17.8041 32.721 19.0409 29.7347 21.2424 27.5326C23.4439 25.3306 26.4299 24.0931 29.5437 24.0924H44.6399V32.4782C44.6399 35.5925 43.4028 38.5792 41.2007 40.7813C38.9985 42.9835 36.0118 44.2206 32.8975 44.2206H21.1579V50.9282H32.8975C35.3204 50.9282 37.7196 50.451 39.958 49.5238C42.1965 48.5966 44.2304 47.2376 45.9436 45.5243C47.6569 43.8111 49.0159 41.7772 49.9431 39.5387C50.8703 37.3003 51.3475 34.9011 51.3475 32.4782V19.0631C51.3475 18.843 51.3042 18.6252 51.22 18.4219C51.1358 18.2186 51.0123 18.0339 50.8568 17.8783C50.7012 17.7227 50.5165 17.5993 50.3132 17.5151C50.1099 17.4309 49.892 17.3876 49.672 17.3876H29.5465C24.6533 17.3876 19.9604 19.3314 16.5004 22.7914C13.0404 26.2515 11.0965 30.9443 11.0965 35.8376L11.0938 35.8348ZM103.777 39.7637C103.777 40.2083 103.741 40.6473 103.694 41.0863H87.8001C88.3003 44.2595 90.5871 46.2101 93.7908 46.2101C96.1304 46.2101 98.0254 45.1292 99.0618 43.3426H103.299C101.743 47.4744 98.1671 49.9835 93.7964 49.9835C88.0724 49.9835 83.7322 45.5655 83.7322 39.7165C83.7322 33.8675 88.0557 29.4495 93.7936 29.4495C99.5314 29.4495 103.777 34.0648 103.777 39.7637ZM93.7936 33.0895C90.7649 33.0895 88.5642 34.9123 87.9029 37.8187H99.7398C99.0201 34.8428 96.7778 33.0895 93.7936 33.0895ZM123.8 29.9302V49.5111H119.826V41.317H110.768V49.5111H106.795V29.9302H110.768V37.6047H119.826V29.9274L123.8 29.9302ZM146.854 39.7637C146.854 40.2083 146.818 40.6473 146.771 41.0863H130.877C131.377 44.2595 133.667 46.2101 136.868 46.2101C139.207 46.2101 141.102 45.1292 142.139 43.3426H146.379C144.823 47.4744 141.244 49.9835 136.873 49.9835C131.149 49.9835 126.812 45.5655 126.812 39.7165C126.812 33.8675 131.135 29.4495 136.87 29.4495C142.611 29.4495 146.854 34.0648 146.854 39.7637ZM136.873 33.0895C133.844 33.0895 131.641 34.9123 130.98 37.8187H142.819C142.097 34.8428 139.857 33.0895 136.873 33.0895ZM159.046 49.989C153.214 49.989 148.785 45.5488 148.785 39.6998C148.785 33.8508 153.203 29.4495 159.055 29.4495C163.895 29.4495 167.677 32.4115 168.766 36.9045H164.776C163.745 34.6539 161.594 33.2923 159.046 33.2923C155.523 33.2923 152.881 36.0793 152.881 39.7082C152.881 43.337 155.559 46.1434 159.046 46.1434C161.608 46.1434 163.687 44.7597 164.748 42.3812H168.811C167.732 46.9576 163.876 49.989 159.046 49.989ZM180.695 49.989C174.865 49.989 170.433 45.5488 170.433 39.6998C170.433 33.8508 174.851 29.4495 180.706 29.4495C185.543 29.4495 189.325 32.4115 190.414 36.9045H186.424C185.393 34.6539 183.248 33.2923 180.695 33.2923C177.174 33.2923 174.532 36.0793 174.532 39.7082C174.532 43.337 177.207 46.1434 180.695 46.1434C183.259 46.1434 185.335 44.7597 186.399 42.3812H190.459C189.383 46.9576 185.527 49.989 180.695 49.989ZM213.015 29.9219V49.5028H209.764L209.375 47.1215C207.597 48.9137 205.124 49.9918 202.276 49.9918C196.441 49.9918 192.079 45.5821 192.079 39.7109C192.079 33.8397 196.441 29.4551 202.276 29.4551C205.16 29.4551 207.661 30.5443 209.437 32.3671L209.909 29.9163H213.013V29.9219H213.015ZM208.981 39.7109C208.981 36.0209 206.286 33.2896 202.593 33.2896C198.9 33.2896 196.18 36.0459 196.18 39.7109C196.18 43.3787 198.903 46.1351 202.593 46.1351C206.286 46.1351 208.981 43.4037 208.981 39.7109ZM234.316 29.9302V49.5111H230.343V41.317H221.285V49.5111H217.311V29.9302H221.285V37.6047H230.343V29.9274L234.316 29.9302ZM247.595 49.989C241.763 49.989 237.334 45.5488 237.334 39.6998C237.334 33.8508 241.752 29.4495 247.604 29.4495C252.444 29.4495 256.223 32.4115 257.315 36.9045H253.325C252.291 34.6539 250.149 33.2923 247.595 33.2923C244.072 33.2923 241.43 36.0793 241.43 39.7082C241.43 43.337 244.108 46.1434 247.595 46.1434C250.157 46.1434 252.236 44.7597 253.297 42.3812H257.359C256.281 46.9576 252.425 49.989 247.595 49.989ZM78.4918 33.1506C78.4918 30.7332 76.6996 28.9494 74.1293 28.9494H69.3779V37.3547H74.1293C76.6996 37.3547 78.4918 35.5708 78.4918 33.1506ZM82.6958 33.1506C82.6958 37.7909 79.1058 41.2642 74.3238 41.2642H69.3751V49.5111H65.2406V25.0315H74.3266C79.078 25.0315 82.6958 28.4853 82.6958 33.1451V33.1506ZM306.36 29.9191V49.4972H303.115L302.723 47.1187C300.947 48.9109 298.474 49.9862 295.624 49.9862C289.791 49.9862 285.429 45.5794 285.429 39.7054C285.429 33.837 289.791 29.4523 295.624 29.4523C298.511 29.4523 301.009 30.5415 302.784 32.3643L303.256 29.9136H306.36V29.9191ZM302.326 39.7082C302.326 36.0154 299.63 33.284 295.938 33.284C292.248 33.284 289.525 36.0432 289.525 39.7082C289.525 43.3731 292.248 46.1323 295.938 46.1323C299.63 46.1323 302.326 43.4009 302.326 39.7082ZM327.661 29.9274V49.5083H323.69V41.3114H314.629V49.5083H310.656V29.9274H314.629V37.5992H323.69V29.9274H327.661ZM331.954 29.9274H335.98V49.5083H331.954V29.9274ZM348.812 49.5083H343.971L336.3 39.522V39.1802L343.519 29.9247H348.087L340.693 39.2886L348.812 49.5083ZM279.216 41.781C279.216 39.5581 277.549 38.0076 275.187 38.0076H270.369V45.596H275.162C277.524 45.596 279.216 43.9928 279.216 41.781ZM283.439 41.781C283.439 46.2685 280.097 49.5055 275.493 49.5055H266.27V25.0371H281.6V28.8744H270.366V34.1148H275.534C280.163 34.1148 283.439 37.3186 283.439 41.781Z" fill="black"/>
</svg>
