<svg width="64" height="64" viewBox="0 0 64 64" fill="none" xmlns="http://www.w3.org/2000/svg">
<path d="M13.0469 25.6382C13.0469 24.5652 13.9099 23.6953 14.9746 23.6953H25.2557C26.3204 23.6953 27.1834 24.5652 27.1834 25.6382C27.1834 26.7112 26.3204 27.581 25.2557 27.581H14.9746C13.9099 27.581 13.0469 26.7112 13.0469 25.6382Z" fill="#D4A63A"/>
<path fill-rule="evenodd" clip-rule="evenodd" d="M56.5051 26.6767C56.339 26.6666 56.1583 26.6666 55.9709 26.6667L55.9241 26.6667H48.5757C42.5187 26.6667 37.3359 31.2962 37.3359 37.3334C37.3359 43.3705 42.5187 48 48.5757 48H55.9241L55.9709 48C56.1583 48.0001 56.339 48.0002 56.5051 47.99C58.9654 47.8391 61.1412 45.9696 61.3241 43.3585C61.3361 43.1873 61.336 43.0027 61.3359 42.8316L61.3359 42.7852V31.8815L61.3359 31.8351C61.336 31.664 61.3361 31.4795 61.3241 31.3082C61.1412 28.6971 58.9654 26.8276 56.5051 26.6767ZM47.9242 40.1778C49.4835 40.1778 50.7477 38.9043 50.7477 37.3333C50.7477 35.7624 49.4835 34.4889 47.9242 34.4889C46.3648 34.4889 45.1006 35.7624 45.1006 37.3333C45.1006 38.9043 46.3648 40.1778 47.9242 40.1778Z" fill="#D4A63A"/>
<path opacity="0.5" d="M56.3743 26.6707C56.3743 23.5224 56.2599 20.1452 54.2473 17.7242C54.0531 17.4905 53.8462 17.2635 53.626 17.0433C51.6303 15.0477 49.0998 14.162 45.9733 13.7417C42.9354 13.3332 39.0538 13.3333 34.1531 13.3333H28.5188C23.6182 13.3333 19.7364 13.3332 16.6985 13.7417C13.5721 14.162 11.0416 15.0477 9.04592 17.0433C7.05029 19.0389 6.16464 21.5695 5.7443 24.6959C5.33587 27.7338 5.3359 31.6155 5.33594 36.5162V36.8171C5.3359 41.7178 5.33587 45.5995 5.7443 48.6374C6.16464 51.7638 7.05029 54.2944 9.04592 56.29C11.0416 58.2856 13.5721 59.1713 16.6985 59.5916C19.7364 60.0001 23.6181 60 28.5187 60H34.153C39.0537 60 42.9355 60.0001 45.9733 59.5916C49.0998 59.1713 51.6303 58.2856 53.626 56.29C54.1713 55.7446 54.6345 55.1583 55.0282 54.5295C56.2295 52.6109 56.3744 50.2595 56.3744 47.9959C56.2458 48.0001 56.1103 48 55.971 48L48.5757 48C42.5187 48 37.3359 43.3705 37.3359 37.3333C37.3359 31.2962 42.5187 26.6667 48.5757 26.6667L55.9709 26.6667C56.1102 26.6666 56.2458 26.6666 56.3743 26.6707Z" fill="#D4A63A"/>
<path d="M26.9369 6.85895L21.333 10.6467L16.7109 13.7396C19.7466 13.3332 23.6235 13.3333 28.5159 13.3333H34.1502C39.0509 13.3333 42.9325 13.3332 45.9704 13.7417C46.5815 13.8238 47.1698 13.9238 47.7358 14.0463L42.6663 10.6666L37.033 6.85895C34.0235 4.82477 29.9464 4.82477 26.9369 6.85895Z" fill="#D4A63A"/>
</svg>
