<svg width="64" height="64" viewBox="0 0 64 64" fill="none" xmlns="http://www.w3.org/2000/svg">
<path opacity="0.5" d="M5.33594 32C5.33594 19.4292 5.33594 13.1438 9.24118 9.23856C13.1464 5.33331 19.4318 5.33331 32.0026 5.33331C44.5734 5.33331 50.8588 5.33331 54.764 9.23856C58.6693 13.1438 58.6693 19.4292 58.6693 32C58.6693 44.5708 58.6693 50.8562 54.764 54.7614C50.8588 58.6666 44.5734 58.6666 32.0026 58.6666C19.4318 58.6666 13.1464 58.6666 9.24118 54.7614C5.33594 50.8562 5.33594 44.5708 5.33594 32Z" fill="#D4A63A"/>
<path d="M58.6641 13.3333C58.6641 17.7516 55.0823 21.3333 50.6641 21.3333C46.2458 21.3333 42.6641 17.7516 42.6641 13.3333C42.6641 8.91504 46.2458 5.33331 50.6641 5.33331C55.0823 5.33331 58.6641 8.91504 58.6641 13.3333Z" fill="#D4A63A"/>
<path d="M38.6641 28.6667C37.5595 28.6667 36.6641 27.7713 36.6641 26.6667C36.6641 25.5621 37.5595 24.6667 38.6641 24.6667H45.3307C46.4353 24.6667 47.3307 25.5621 47.3307 26.6667V33.3334C47.3307 34.4379 46.4353 35.3334 45.3307 35.3334C44.2262 35.3334 43.3307 34.4379 43.3307 33.3334V31.4951L37.9639 36.8619C36.1414 38.6844 33.1867 38.6844 31.3642 36.8619L27.1355 32.6332C26.8751 32.3728 26.453 32.3728 26.1927 32.6332L20.0783 38.7476C19.2972 39.5286 18.0309 39.5286 17.2498 38.7476C16.4688 37.9665 16.4688 36.7002 17.2498 35.9191L23.3642 29.8048C25.1867 27.9823 28.1414 27.9823 29.9639 29.8048L34.1927 34.0335C34.453 34.2939 34.8751 34.2939 35.1355 34.0335L40.5023 28.6667H38.6641Z" fill="#D4A63A"/>
</svg>
