<svg width="64" height="64" viewBox="0 0 64 64" fill="none" xmlns="http://www.w3.org/2000/svg">
<path opacity="0.5" d="M56 42.6621V26.6621V26.662C56 19.1196 56 15.3483 53.6569 13.0052C51.6078 10.9562 48.4667 10.699 42.6667 10.6667H21.3333C15.5333 10.699 12.3922 10.9562 10.3431 13.0052C8 15.3483 8 19.1196 8 26.6621V42.6621C8 50.2045 8 53.9758 10.3431 56.3189C12.6863 58.6621 16.4575 58.6621 24 58.6621H40C47.5425 58.6621 51.3137 58.6621 53.6569 56.3189C56 53.9758 56 50.2045 56 42.6621V42.6621Z" fill="#D4A63A"/>
<path d="M21.3359 9.33331C21.3359 7.12417 23.1268 5.33331 25.3359 5.33331H38.6693C40.8784 5.33331 42.6693 7.12417 42.6693 9.33331V12C42.6693 14.2091 40.8784 16 38.6693 16H25.3359C23.1268 16 21.3359 14.2091 21.3359 12V9.33331Z" fill="#D4A63A"/>
<path fill-rule="evenodd" clip-rule="evenodd" d="M16.6641 28C16.6641 26.8954 17.5595 26 18.6641 26H19.9974C21.102 26 21.9974 26.8954 21.9974 28C21.9974 29.1046 21.102 30 19.9974 30H18.6641C17.5595 30 16.6641 29.1046 16.6641 28ZM25.9974 28C25.9974 26.8954 26.8928 26 27.9974 26H45.3307C46.4353 26 47.3307 26.8954 47.3307 28C47.3307 29.1046 46.4353 30 45.3307 30H27.9974C26.8928 30 25.9974 29.1046 25.9974 28ZM16.6641 37.3333C16.6641 36.2288 17.5595 35.3333 18.6641 35.3333H19.9974C21.102 35.3333 21.9974 36.2288 21.9974 37.3333C21.9974 38.4379 21.102 39.3333 19.9974 39.3333H18.6641C17.5595 39.3333 16.6641 38.4379 16.6641 37.3333ZM25.9974 37.3333C25.9974 36.2288 26.8928 35.3333 27.9974 35.3333H45.3307C46.4353 35.3333 47.3307 36.2288 47.3307 37.3333C47.3307 38.4379 46.4353 39.3333 45.3307 39.3333H27.9974C26.8928 39.3333 25.9974 38.4379 25.9974 37.3333ZM16.6641 46.6667C16.6641 45.5621 17.5595 44.6667 18.6641 44.6667H19.9974C21.102 44.6667 21.9974 45.5621 21.9974 46.6667C21.9974 47.7712 21.102 48.6667 19.9974 48.6667H18.6641C17.5595 48.6667 16.6641 47.7712 16.6641 46.6667ZM25.9974 46.6667C25.9974 45.5621 26.8928 44.6667 27.9974 44.6667H45.3307C46.4353 44.6667 47.3307 45.5621 47.3307 46.6667C47.3307 47.7712 46.4353 48.6667 45.3307 48.6667H27.9974C26.8928 48.6667 25.9974 47.7712 25.9974 46.6667Z" fill="#D4A63A"/>
</svg>
