<svg width="64" height="64" viewBox="0 0 64 64" fill="none" xmlns="http://www.w3.org/2000/svg">
<path opacity="0.5" d="M32.135 5.33331C36.6156 5.33328 40.1646 5.33325 42.9421 5.71318C45.8005 6.1042 48.1142 6.92806 49.9387 8.78446C51.7633 10.6409 52.5731 12.9948 52.9574 15.9032C53.3308 18.7291 53.3308 22.3401 53.3307 26.8988V37.1013C53.3308 41.66 53.3308 45.2708 52.9574 48.0968C52.5731 51.0051 51.7633 53.3591 49.9387 55.2155C48.1142 57.0719 45.8005 57.8958 42.9421 58.2868C40.1646 58.6667 36.6156 58.6667 32.1351 58.6666H32.1349H31.8598H31.8596C27.3791 58.6667 23.8302 58.6667 21.0527 58.2868C18.1943 57.8958 15.8806 57.0719 14.056 55.2155C12.2315 53.3591 11.4217 51.0051 11.0374 48.0968C10.664 45.2708 10.664 41.6599 10.6641 37.1012V37.1012V26.8988V26.8987C10.664 22.34 10.664 18.7291 11.0374 15.9032C11.4217 12.9948 12.2315 10.6409 14.056 8.78446C15.8806 6.92806 18.1943 6.1042 21.0527 5.71318C23.8302 5.33325 27.3792 5.33328 31.8598 5.33331H31.8598H32.135H32.135Z" fill="#D4A63A"/>
<path d="M22.8594 49.3631C22.8594 48.3356 23.6781 47.5026 24.6879 47.5026H39.3165C40.3264 47.5026 41.1451 48.3356 41.1451 49.3631C41.1451 50.3906 40.3264 51.2236 39.3165 51.2236H24.6879C23.6781 51.2236 22.8594 50.3906 22.8594 49.3631Z" fill="#D4A63A"/>
</svg>
